M48
;Layer_Color=9474304
;FILE_FORMAT=2:5
INCH,LZ
;TYPE=PLATED
T1F00S00C0.01181
T2F00S00C0.01900
T3F00S00C0.01968
T4F00S00C0.02000
T5F00S00C0.03386
T6F00S00C0.03543
T7F00S00C0.03937
T8F00S00C0.04016
T9F00S00C0.05906
T10F00S00C0.07480
T11F00S00C0.09843
T12F00S00C0.17717
%
T01
X0087508Y00434
X0121714Y0045555
X0130049
X01256Y00521
X0121714Y00591
X0130049
X0169264Y0044543
X0177599
X017315Y0037543
X0169264Y0030997
X0177599
X017315Y0025267
X0169264Y0019412
X0177599
X0243719Y0019226
X0255995
X026863
X0281555
X0293831
X0287387Y00263
X02757
X0262775
X024945
X0237864
X0243719Y0034101
X0255305
X0293933Y0034604
X0294683Y0045615
X0301258Y0039884
X0307682Y0045615
Y0034029
Y0019226
X0300341Y0026446
X0301258Y005216
Y0064795
X0294865Y0070526
Y005894
X0307682
X0461132Y0140789
X0467037Y01526
X0461132Y0164411
X0467037Y0176222
X0461132Y0188033
X0467037Y0199844
X0461132Y0211655
X0467037Y0223466
X0416841Y0200132
X0416864Y0187308
X0334887Y0186055
X0323076
X0311265
X0299454
X0287643Y01852
X0275832
X0264021Y0186055
X025221
X0240399
X0228588
X0216777
X0210872Y0197011
X0222683
X0234494
X0246305
X0258116
X0269927
X0281738
X0293549
X030536
X0317171
X0328982
X0323076Y0208822
X0311265
X0299454
X0287643
X0275832
X0264021
X025221
X0240399
X0228588
X0216777
X0215303Y0100475
X0321469Y0098939
X0328182
Y0106458
X0321827
X0191635Y0109779
X0168464Y0095808
X0128482Y0100475
X0104814Y0109779
X00834Y01145
X0098667Y01852
X0110478
X0122289
X01341
X0145911
X0157722Y0186055
X0169533
X0181344
X0193155
X0204966
X0199061Y0197866
X018725Y0197011
X0175439
X0163628
X0151816
X0140006
X0128194
X0116384
X0104572
X0110478Y0208822
X0122289
X01341
X0145911
X0157722
X0169533
X0181344
X0193155
X0204966
X0142764Y01463
X0461132Y0235277
X0467037Y0247088
X0461132Y0258899
X0467037Y027071
X0461132Y0282521
Y0306143
T02
X00752Y0155992
X0074563Y02281
X-0001959Y0160208
X00085Y01277
X-0062636Y0190008
X-007055Y0279913
X0017656Y0273048
X00209Y0311
X00108Y02293
X0057459Y0235351
X00842Y02519
X00641Y03136
T03
X-00399Y007
X033059Y00649
X034029
X04275Y007
X03905Y00728
X039Y01072
X0427464Y0140108
X0422381Y0181208
X0433764Y0212008
X0369656Y01875
Y01818
X01696Y01348
X0153064Y0146308
X01339Y01332
X01038Y01441
X0073564Y0173381
X00746Y01898
X0059655Y0192321
X0089319Y0222
X00652Y01175
X0016901Y0114631
Y0123996
X0017Y00989
X-0022036Y0101208
X0012715Y0167857
X0018159Y0180493
X0028628Y0178258
X0046305Y0164308
X0013Y02035
X0015916Y0253208
X0005264
X0016Y02827
X0044983Y0269089
X-0070332Y0272208
X-00244Y03392
X-00399Y03725
X00736Y0268032
X00944Y027
X0060688Y0249054
X0179464Y0259408
X0177164Y0282908
X01914Y03575
X0376271Y0321891
X04227Y03725
T04
X-0062758Y0302208
T05
X-0044212Y0111596
Y0121596
Y0131596
Y0141596
Y0151596
Y0161596
Y0171596
Y0181596
X-0012952
Y0171596
Y0161596
Y0151596
Y0141596
Y0131596
Y0121596
Y0111596
Y0222108
X-0044212
Y0232108
Y0242108
Y0252108
Y0262108
Y0272108
Y0282108
Y0292108
X-0012952
Y0282108
Y0272108
Y0262108
Y0252108
Y0242108
Y0232108
T06
X02523Y00542
X02623
X02723
X0301764Y0127108
X0311764
X-0022636Y0195908
Y0205908
X-0032636
Y0195908
X-0062636Y0199908
Y0209908
Y0219908
X0381764Y0334608
X0391764
Y0344608
X0381764
T07
X0097679Y00316
X0107521Y00316
X0108221Y00591
X0098379Y00591
X01433
X0153142Y00591
X0153307Y00316
X0143464Y00316
X0181464Y0064808
X0191464
X0201464
X0211464
X0221464
X0231464
X0364679Y0129502
Y013937
Y0149239
Y0159108
Y0204002
Y021387
Y0223739
X0317313Y0166202
Y0156754
X0307313
Y0166202
X0297313
Y0156754
X0287313
Y0166202
X0277313
Y0156754
X0267313
Y0166202
X0257313
Y0156754
X0247313
Y0166202
X0237313
Y0156754
X0227313
Y0166202
X0217313
Y0156754
X0207313
Y0166202
X0240907Y0128237
X0249379
Y0098611
X0240907
X0231464Y0074808
X0221464
X0211464
X0286479Y00935
X0296321Y00935
X0340418Y00935
X035026Y00935
X0201464Y0074808
X0191464
X0181464
X015767Y0098611
X014767
Y0128237
X015767
X0157313Y0156754
Y0166202
X0167313
Y0156754
X0177313
Y0166202
X0187313
Y0156754
X0197313
Y0166202
X0147313
Y0156754
X0137313
Y0166202
X0127313
Y0156754
X0117313
Y0166202
X0107313
Y0156754
X0061164Y0141629
X0061164Y0131787
X0061264Y0207297
X0061264Y021714
X0035964Y0212466
Y0222308
Y0202623
Y0145851
Y0136008
Y0126165
X0035834Y0279081
Y0288924
Y0298766
X0036526Y0346596
X0046394
X-0000936Y0340845
Y0330977
Y0321108
Y0311239
X0061264Y0292651
X0061264Y0282808
X0107313Y0296399
Y0305848
X0117313
Y0296399
X0127313
Y0305848
X0137313
Y0296399
X0147313
Y0305848
X0157313
Y0296399
X0167313
Y0305848
X0177313
Y0296399
X0187313
Y0305848
X0197313
Y0296399
X0195233Y0346694
X0185364
X0175495
X0205102
X0135226
X0125358
X0115489
X010562
X0066132Y0346596
X0056263
X0207313Y0305848
Y0296399
X0217313
Y0305848
X0227313
Y0296399
X0237313
Y0305848
X0247313
Y0296399
X0257313
Y0305848
X0267313
Y0296399
X0277313
Y0305848
X0287313
Y0296399
X0297313
Y0305848
X0307313
Y0296399
X0317313
Y0305848
X0321069Y0346694
X0330938
X0340806
X0350675
X0277622Y0346748
X0267753
X0257885
X0248016
X0364679Y0308108
Y0298239
Y028837
Y0278502
Y0233608
T08
X0046564Y0025508
Y0035508
Y0045508
Y0055508
X0056564
Y0045508
Y0035508
X0066564
Y0025508
X0056564
X0066564Y0045508
Y0055508
T09
X0071725Y0082808
X0150071
X0005483Y0118635
Y0196981
X0005483Y0211383
Y0289729
T10
X0318057Y00278
X0337742Y00278
T11
X019552Y00325
X0209694
X0223079
T12
X0006306Y003262
X0376384
Y0402699
X0006306
M30
