G04*
G04 #@! TF.GenerationSoftware,Altium Limited,Altium Designer,21.4.1 (30)*
G04*
G04 Layer_Color=128*
%FSLAX25Y25*%
%MOIN*%
G70*
G04*
G04 #@! TF.SameCoordinates,A47B8419-E6DC-47D0-8E32-9BAF03E0F130*
G04*
G04*
G04 #@! TF.FilePolarity,Positive*
G04*
G01*
G75*
%ADD128C,0.00200*%
D128*
X155344Y156754D02*
X159281D01*
X157313Y154785D02*
Y158722D01*
X165344Y166202D02*
X169281D01*
X167313Y164234D02*
Y168171D01*
X165344Y156754D02*
X169281D01*
X167313Y154785D02*
Y158722D01*
X175344Y166202D02*
X179281D01*
X177313Y164234D02*
Y168171D01*
X185344Y156754D02*
X189281D01*
X187313Y154785D02*
Y158722D01*
X175344Y156754D02*
X179281D01*
X177313Y154785D02*
Y158722D01*
X195344Y156754D02*
X199281D01*
X197313Y154785D02*
Y158722D01*
X185344Y166202D02*
X189281D01*
X187313Y164234D02*
Y168171D01*
X195344Y166202D02*
X199281D01*
X197313Y164234D02*
Y168171D01*
X205344Y166202D02*
X209281D01*
X207313Y164234D02*
Y168171D01*
X205344Y156754D02*
X209281D01*
X207313Y154785D02*
Y158722D01*
X215344Y166202D02*
X219281D01*
X217313Y164234D02*
Y168171D01*
X215344Y156754D02*
X219281D01*
X217313Y154785D02*
Y158722D01*
X225344Y156754D02*
X229281D01*
X227313Y154785D02*
Y158722D01*
X225344Y166202D02*
X229281D01*
X227313Y164234D02*
Y168171D01*
X235344Y166202D02*
X239281D01*
X237313Y164234D02*
Y168171D01*
X245344Y166202D02*
X249281D01*
X247313Y164234D02*
Y168171D01*
X245344Y156754D02*
X249281D01*
X247313Y154785D02*
Y158722D01*
X235344Y156754D02*
X239281D01*
X237313Y154785D02*
Y158722D01*
X255344Y156754D02*
X259281D01*
X257313Y154785D02*
Y158722D01*
X255344Y166202D02*
X259281D01*
X257313Y164234D02*
Y168171D01*
X265344Y166202D02*
X269281D01*
X267313Y164234D02*
Y168171D01*
X265344Y156754D02*
X269281D01*
X267313Y154785D02*
Y158722D01*
X275344Y166202D02*
X279281D01*
X277313Y164234D02*
Y168171D01*
X275344Y156754D02*
X279281D01*
X277313Y154785D02*
Y158722D01*
X285344Y166202D02*
X289281D01*
X287313Y164234D02*
Y168171D01*
X285344Y156754D02*
X289281D01*
X287313Y154785D02*
Y158722D01*
X295344Y166202D02*
X299281D01*
X297313Y164234D02*
Y168171D01*
X295344Y156754D02*
X299281D01*
X297313Y154785D02*
Y158722D01*
X305344Y166202D02*
X309281D01*
X307313Y164234D02*
Y168171D01*
X305344Y156754D02*
X309281D01*
X307313Y154785D02*
Y158722D01*
X315344Y166202D02*
X319281D01*
X317313Y164234D02*
Y168171D01*
X315344Y156754D02*
X319281D01*
X317313Y154785D02*
Y158722D01*
X115344Y156754D02*
X119281D01*
X117313Y154785D02*
Y158722D01*
X105344Y166202D02*
X109281D01*
X107313Y164234D02*
Y168171D01*
X115344Y166202D02*
X119281D01*
X117313Y164234D02*
Y168171D01*
X125344Y156754D02*
X129281D01*
X127313Y154785D02*
Y158722D01*
X105344Y156754D02*
X109281D01*
X107313Y154785D02*
Y158722D01*
X125344Y166202D02*
X129281D01*
X127313Y164234D02*
Y168171D01*
X135344Y166202D02*
X139281D01*
X137313Y164234D02*
Y168171D01*
X135344Y156754D02*
X139281D01*
X137313Y154785D02*
Y158722D01*
X145344Y166202D02*
X149281D01*
X147313Y164234D02*
Y168171D01*
X145344Y156754D02*
X149281D01*
X147313Y154785D02*
Y158722D01*
X155344Y166202D02*
X159281D01*
X157313Y164234D02*
Y168171D01*
X285344Y305848D02*
X289281D01*
X287313Y303880D02*
Y307817D01*
X235344Y296399D02*
X239281D01*
X237313Y294431D02*
Y298368D01*
X275344Y305848D02*
X279281D01*
X277313Y303880D02*
Y307817D01*
X245344Y305848D02*
X249281D01*
X247313Y303880D02*
Y307817D01*
X255344Y305848D02*
X259281D01*
X257313Y303880D02*
Y307817D01*
X275344Y296399D02*
X279281D01*
X277313Y294431D02*
Y298368D01*
X265344Y305848D02*
X269281D01*
X267313Y303880D02*
Y307817D01*
X265344Y296399D02*
X269281D01*
X267313Y294431D02*
Y298368D01*
X305344Y305848D02*
X309281D01*
X307313Y303880D02*
Y307817D01*
X315344Y305848D02*
X319281D01*
X317313Y303880D02*
Y307817D01*
X295344Y296399D02*
X299281D01*
X297313Y294431D02*
Y298368D01*
X305344Y296399D02*
X309281D01*
X307313Y294431D02*
Y298368D01*
X295344Y305848D02*
X299281D01*
X297313Y303880D02*
Y307817D01*
X145344Y305848D02*
X149281D01*
X147313Y303880D02*
Y307817D01*
X155344Y305848D02*
X159281D01*
X157313Y303880D02*
Y307817D01*
X135344Y305848D02*
X139281D01*
X137313Y303880D02*
Y307817D01*
X115344Y305848D02*
X119281D01*
X117313Y303880D02*
Y307817D01*
X105344Y305848D02*
X109281D01*
X107313Y303880D02*
Y307817D01*
X165344Y305848D02*
X169281D01*
X167313Y303880D02*
Y307817D01*
X125344Y305848D02*
X129281D01*
X127313Y303880D02*
Y307817D01*
X145344Y296399D02*
X149281D01*
X147313Y294431D02*
Y298368D01*
X135344Y296399D02*
X139281D01*
X137313Y294431D02*
Y298368D01*
X125344Y296399D02*
X129281D01*
X127313Y294431D02*
Y298368D01*
X115344Y296399D02*
X119281D01*
X117313Y294431D02*
Y298368D01*
X105344Y296399D02*
X109281D01*
X107313Y294431D02*
Y298368D01*
X155344Y296399D02*
X159281D01*
X157313Y294431D02*
Y298368D01*
X165344Y296399D02*
X169281D01*
X167313Y294431D02*
Y298368D01*
X285344Y296399D02*
X289281D01*
X287313Y294431D02*
Y298368D01*
X245344Y296399D02*
X249281D01*
X247313Y294431D02*
Y298368D01*
X255344Y296399D02*
X259281D01*
X257313Y294431D02*
Y298368D01*
X315344Y296399D02*
X319281D01*
X317313Y294431D02*
Y298368D01*
X175344Y305848D02*
X179281D01*
X177313Y303880D02*
Y307817D01*
X215344Y305848D02*
X219281D01*
X217313Y303880D02*
Y307817D01*
X205344Y296399D02*
X209281D01*
X207313Y294431D02*
Y298368D01*
X185344Y296399D02*
X189281D01*
X187313Y294431D02*
Y298368D01*
X195344Y305848D02*
X199281D01*
X197313Y303880D02*
Y307817D01*
X185344Y305848D02*
X189281D01*
X187313Y303880D02*
Y307817D01*
X195344Y296399D02*
X199281D01*
X197313Y294431D02*
Y298368D01*
X205344Y305848D02*
X209281D01*
X207313Y303880D02*
Y307817D01*
X175344Y296399D02*
X179281D01*
X177313Y294431D02*
Y298368D01*
X225344Y305848D02*
X229281D01*
X227313Y303880D02*
Y307817D01*
X215344Y296399D02*
X219281D01*
X217313Y294431D02*
Y298368D01*
X225344Y296399D02*
X229281D01*
X227313Y294431D02*
Y298368D01*
X235344Y305848D02*
X239281D01*
X237313Y303880D02*
Y307817D01*
X-2904Y311239D02*
X1033D01*
X-936Y309271D02*
Y313208D01*
X-2904Y321108D02*
X1033D01*
X-936Y319139D02*
Y323076D01*
X-2904Y340845D02*
X1033D01*
X-936Y338877D02*
Y342814D01*
X-2904Y330977D02*
X1033D01*
X-936Y329008D02*
Y332945D01*
X389992Y334608D02*
X393536D01*
X391764Y332836D02*
Y336380D01*
X379993Y334608D02*
X383536D01*
X381764Y332836D02*
Y336380D01*
X389992Y344608D02*
X393536D01*
X391764Y342836D02*
Y346380D01*
X379993Y344608D02*
X383536D01*
X381764Y342836D02*
Y346380D01*
X-2553Y402699D02*
X15164D01*
X6306Y393840D02*
Y411557D01*
X173527Y346694D02*
X177464D01*
X175495Y344726D02*
Y348663D01*
X183396Y346694D02*
X187333D01*
X185364Y344726D02*
Y348663D01*
X203133Y346694D02*
X207070D01*
X205102Y344726D02*
Y348663D01*
X193264Y346694D02*
X197201D01*
X195233Y344726D02*
Y348663D01*
X270528Y54200D02*
X274072D01*
X272300Y52428D02*
Y55972D01*
X260528Y54200D02*
X264072D01*
X262300Y52428D02*
Y55972D01*
X250528Y54200D02*
X254072D01*
X252300Y52428D02*
Y55972D01*
X294353Y93500D02*
X298290D01*
X296321Y91531D02*
Y95468D01*
X284510Y93500D02*
X288447D01*
X286479Y91531D02*
Y95468D01*
X348292Y93500D02*
X352228D01*
X350260Y91531D02*
Y95468D01*
X338449Y93500D02*
X342386D01*
X340418Y91531D02*
Y95468D01*
X314317Y27800D02*
X321798D01*
X318057Y24060D02*
Y31540D01*
X334002Y27800D02*
X341483D01*
X337742Y24060D02*
Y31540D01*
X2531Y118635D02*
X8436D01*
X5483Y115682D02*
Y121588D01*
X2531Y196981D02*
X8436D01*
X5483Y194028D02*
Y199934D01*
X68772Y82808D02*
X74677D01*
X71725Y79855D02*
Y85761D01*
X147118Y82808D02*
X153024D01*
X150071Y79855D02*
Y85761D01*
X2531Y289729D02*
X8436D01*
X5483Y286776D02*
Y292682D01*
X2531Y211383D02*
X8436D01*
X5483Y208430D02*
Y214335D01*
X-64407Y219908D02*
X-60864D01*
X-62636Y218136D02*
Y221680D01*
X-64407Y209908D02*
X-60864D01*
X-62636Y208136D02*
Y211680D01*
X-64407Y199908D02*
X-60864D01*
X-62636Y198136D02*
Y201680D01*
X246047Y346748D02*
X249984D01*
X248016Y344779D02*
Y348716D01*
X255916Y346748D02*
X259853D01*
X257885Y344779D02*
Y348716D01*
X275654Y346748D02*
X279591D01*
X277622Y344779D02*
Y348716D01*
X265785Y346748D02*
X269722D01*
X267753Y344779D02*
Y348716D01*
X-24408Y205908D02*
X-20864D01*
X-22636Y204136D02*
Y207680D01*
X-24408Y195908D02*
X-20864D01*
X-22636Y194136D02*
Y197680D01*
X-34407Y205908D02*
X-30864D01*
X-32636Y204136D02*
Y207680D01*
X-34407Y195908D02*
X-30864D01*
X-32636Y194136D02*
Y197680D01*
X123389Y346694D02*
X127326D01*
X125358Y344726D02*
Y348663D01*
X133258Y346694D02*
X137195D01*
X135226Y344726D02*
Y348663D01*
X113520Y346694D02*
X117457D01*
X115489Y344726D02*
Y348663D01*
X103651Y346694D02*
X107589D01*
X105620Y344726D02*
Y348663D01*
X338838Y346694D02*
X342775D01*
X340806Y344726D02*
Y348663D01*
X348707Y346694D02*
X352644D01*
X350675Y344726D02*
Y348663D01*
X328969Y346694D02*
X332906D01*
X330938Y344726D02*
Y348663D01*
X319100Y346694D02*
X323037D01*
X321069Y344726D02*
Y348663D01*
X33996Y126165D02*
X37933D01*
X35964Y124197D02*
Y128134D01*
X33996Y136008D02*
X37933D01*
X35964Y134039D02*
Y137976D01*
X33996Y145851D02*
X37933D01*
X35964Y143882D02*
Y147819D01*
X59196Y141629D02*
X63133D01*
X61164Y139661D02*
Y143598D01*
X59196Y131787D02*
X63133D01*
X61164Y129818D02*
Y133755D01*
X33996Y222308D02*
X37933D01*
X35964Y220340D02*
Y224277D01*
X33996Y212466D02*
X37933D01*
X35964Y210497D02*
Y214434D01*
X33996Y202623D02*
X37933D01*
X35964Y200655D02*
Y204592D01*
X59296Y207297D02*
X63233D01*
X61264Y205329D02*
Y209266D01*
X59296Y217140D02*
X63233D01*
X61264Y215171D02*
Y219108D01*
X33865Y298766D02*
X37802D01*
X35834Y296798D02*
Y300735D01*
X33865Y288924D02*
X37802D01*
X35834Y286955D02*
Y290892D01*
X33865Y279081D02*
X37802D01*
X35834Y277113D02*
Y281050D01*
X59296Y282808D02*
X63233D01*
X61264Y280839D02*
Y284776D01*
X59296Y292651D02*
X63233D01*
X61264Y290682D02*
Y294619D01*
X229496Y74808D02*
X233433D01*
X231464Y72839D02*
Y76776D01*
X229496Y64808D02*
X233433D01*
X231464Y62839D02*
Y66776D01*
X219496Y74808D02*
X223433D01*
X221464Y72839D02*
Y76776D01*
X219496Y64808D02*
X223433D01*
X221464Y62839D02*
Y66776D01*
X209496Y74808D02*
X213433D01*
X211464Y72839D02*
Y76776D01*
X209496Y64808D02*
X213433D01*
X211464Y62839D02*
Y66776D01*
X199496Y74808D02*
X203433D01*
X201464Y72839D02*
Y76776D01*
X199496Y64808D02*
X203433D01*
X201464Y62839D02*
Y66776D01*
X189496Y74808D02*
X193433D01*
X191464Y72839D02*
Y76776D01*
X189496Y64808D02*
X193433D01*
X191464Y62839D02*
Y66776D01*
X179496Y74808D02*
X183433D01*
X181464Y72839D02*
Y76776D01*
X179496Y64808D02*
X183433D01*
X181464Y62839D02*
Y66776D01*
X64556Y25508D02*
X68572D01*
X66564Y23500D02*
Y27516D01*
X44556Y25508D02*
X48572D01*
X46564Y23500D02*
Y27516D01*
X64556Y35508D02*
X68572D01*
X66564Y33500D02*
Y37516D01*
X54556Y35508D02*
X58572D01*
X56564Y33500D02*
Y37516D01*
X44556Y35508D02*
X48572D01*
X46564Y33500D02*
Y37516D01*
X64556Y45508D02*
X68572D01*
X66564Y43500D02*
Y47516D01*
X54556Y45508D02*
X58572D01*
X56564Y43500D02*
Y47516D01*
X44556Y45508D02*
X48572D01*
X46564Y43500D02*
Y47516D01*
X64556Y55508D02*
X68572D01*
X66564Y53500D02*
Y57516D01*
X54556Y55508D02*
X58572D01*
X56564Y53500D02*
Y57516D01*
X44556Y55508D02*
X48572D01*
X46564Y53500D02*
Y57516D01*
X54556Y25508D02*
X58572D01*
X56564Y23500D02*
Y27516D01*
X362711Y139370D02*
X366648D01*
X364679Y137402D02*
Y141339D01*
X362711Y129502D02*
X366648D01*
X364679Y127533D02*
Y131470D01*
X362711Y149239D02*
X366648D01*
X364679Y147271D02*
Y151208D01*
X362711Y159108D02*
X366648D01*
X364679Y157139D02*
Y161076D01*
X362711Y213870D02*
X366648D01*
X364679Y211902D02*
Y215839D01*
X362711Y204002D02*
X366648D01*
X364679Y202033D02*
Y205970D01*
X362711Y223739D02*
X366648D01*
X364679Y221771D02*
Y225708D01*
X362711Y233608D02*
X366648D01*
X364679Y231639D02*
Y235576D01*
X362711Y288370D02*
X366648D01*
X364679Y286402D02*
Y290339D01*
X362711Y278502D02*
X366648D01*
X364679Y276533D02*
Y280470D01*
X362711Y298239D02*
X366648D01*
X364679Y296271D02*
Y300208D01*
X362711Y308108D02*
X366648D01*
X364679Y306139D02*
Y310076D01*
X34557Y346596D02*
X38494D01*
X36526Y344628D02*
Y348565D01*
X44426Y346596D02*
X48363D01*
X46394Y344628D02*
Y348565D01*
X64163Y346596D02*
X68100D01*
X66132Y344628D02*
Y348565D01*
X54295Y346596D02*
X58232D01*
X56263Y344628D02*
Y348565D01*
X309993Y127108D02*
X313536D01*
X311764Y125336D02*
Y128880D01*
X299992Y127108D02*
X303536D01*
X301764Y125336D02*
Y128880D01*
X141332Y59100D02*
X145268D01*
X143300Y57131D02*
Y61068D01*
X151174Y59100D02*
X155111D01*
X153142Y57131D02*
Y61068D01*
X96410Y59100D02*
X100347D01*
X98379Y57131D02*
Y61068D01*
X106253Y59100D02*
X110190D01*
X108221Y57131D02*
Y61068D01*
X141496Y31600D02*
X145433D01*
X143464Y29632D02*
Y33569D01*
X151338Y31600D02*
X155275D01*
X153307Y29632D02*
Y33569D01*
X95710Y31600D02*
X99647D01*
X97679Y29632D02*
Y33569D01*
X105553Y31600D02*
X109490D01*
X107521Y29632D02*
Y33569D01*
X145702Y98611D02*
X149639D01*
X147670Y96643D02*
Y100580D01*
X145702Y128237D02*
X149639D01*
X147670Y126269D02*
Y130206D01*
X155702Y128237D02*
X159639D01*
X157670Y126269D02*
Y130206D01*
X155702Y98611D02*
X159639D01*
X157670Y96643D02*
Y100580D01*
X238938Y128237D02*
X242875D01*
X240907Y126269D02*
Y130206D01*
X238938Y98611D02*
X242875D01*
X240907Y96643D02*
Y100580D01*
X247411Y128237D02*
X251348D01*
X249379Y126269D02*
Y130206D01*
X247411Y98611D02*
X251348D01*
X249379Y96643D02*
Y100580D01*
X-14645Y111596D02*
X-11259D01*
X-12952Y109903D02*
Y113289D01*
X-14645Y121596D02*
X-11259D01*
X-12952Y119903D02*
Y123289D01*
X-14645Y131596D02*
X-11259D01*
X-12952Y129903D02*
Y133289D01*
X-14645Y141596D02*
X-11259D01*
X-12952Y139903D02*
Y143289D01*
X-14645Y151596D02*
X-11259D01*
X-12952Y149903D02*
Y153289D01*
X-14645Y161596D02*
X-11259D01*
X-12952Y159903D02*
Y163289D01*
X-14645Y171596D02*
X-11259D01*
X-12952Y169903D02*
Y173289D01*
X-14645Y181596D02*
X-11259D01*
X-12952Y179903D02*
Y183289D01*
X-45905Y181596D02*
X-42519D01*
X-44212Y179903D02*
Y183289D01*
X-45905Y171596D02*
X-42519D01*
X-44212Y169903D02*
Y173289D01*
X-45905Y161596D02*
X-42519D01*
X-44212Y159903D02*
Y163289D01*
X-45905Y151596D02*
X-42519D01*
X-44212Y149903D02*
Y153289D01*
X-45905Y141596D02*
X-42519D01*
X-44212Y139903D02*
Y143289D01*
X-45905Y131596D02*
X-42519D01*
X-44212Y129903D02*
Y133289D01*
X-45905Y121596D02*
X-42519D01*
X-44212Y119903D02*
Y123289D01*
X-45905Y111596D02*
X-42519D01*
X-44212Y109903D02*
Y113289D01*
X-14645Y222108D02*
X-11259D01*
X-12952Y220415D02*
Y223801D01*
X-14645Y232108D02*
X-11259D01*
X-12952Y230415D02*
Y233801D01*
X-14645Y242108D02*
X-11259D01*
X-12952Y240415D02*
Y243801D01*
X-14645Y252108D02*
X-11259D01*
X-12952Y250415D02*
Y253801D01*
X-14645Y262108D02*
X-11259D01*
X-12952Y260415D02*
Y263801D01*
X-14645Y272108D02*
X-11259D01*
X-12952Y270415D02*
Y273801D01*
X-14645Y282108D02*
X-11259D01*
X-12952Y280415D02*
Y283801D01*
X-14645Y292108D02*
X-11259D01*
X-12952Y290415D02*
Y293801D01*
X-45905Y292108D02*
X-42519D01*
X-44212Y290415D02*
Y293801D01*
X-45905Y282108D02*
X-42519D01*
X-44212Y280415D02*
Y283801D01*
X-45905Y272108D02*
X-42519D01*
X-44212Y270415D02*
Y273801D01*
X-45905Y262108D02*
X-42519D01*
X-44212Y260415D02*
Y263801D01*
X-45905Y252108D02*
X-42519D01*
X-44212Y250415D02*
Y253801D01*
X-45905Y242108D02*
X-42519D01*
X-44212Y240415D02*
Y243801D01*
X-45905Y232108D02*
X-42519D01*
X-44212Y230415D02*
Y233801D01*
X-45905Y222108D02*
X-42519D01*
X-44212Y220415D02*
Y223801D01*
X190599Y32500D02*
X200442D01*
X195520Y27579D02*
Y37421D01*
X204772Y32500D02*
X214615D01*
X209694Y27579D02*
Y37421D01*
X218158Y32500D02*
X228001D01*
X223079Y27579D02*
Y37421D01*
X-2553Y32620D02*
X15164D01*
X6306Y23762D02*
Y41478D01*
X367526Y402699D02*
X385242D01*
X376384Y393840D02*
Y411557D01*
X367526Y32620D02*
X385242D01*
X376384Y23762D02*
Y41478D01*
X9850Y229300D02*
X11750D01*
X10800Y228350D02*
Y230250D01*
X74250Y155992D02*
X76150D01*
X75200Y155042D02*
Y156942D01*
X322486Y208822D02*
X323667D01*
X323076Y208231D02*
Y209413D01*
X328391Y197011D02*
X329572D01*
X328982Y196421D02*
Y197602D01*
X334297Y186055D02*
X335478D01*
X334887Y185464D02*
Y186645D01*
X310675Y208822D02*
X311856D01*
X311265Y208231D02*
Y209413D01*
X316580Y197011D02*
X317761D01*
X317171Y196421D02*
Y197602D01*
X322486Y186055D02*
X323667D01*
X323076Y185464D02*
Y186645D01*
X298864Y208822D02*
X300045D01*
X299454Y208231D02*
Y209413D01*
X304769Y197011D02*
X305950D01*
X305360Y196421D02*
Y197602D01*
X310675Y186055D02*
X311856D01*
X311265Y185464D02*
Y186645D01*
X287053Y208822D02*
X288234D01*
X287643Y208231D02*
Y209413D01*
X292958Y197011D02*
X294139D01*
X293549Y196421D02*
Y197602D01*
X298864Y186055D02*
X300045D01*
X299454Y185464D02*
Y186645D01*
X251620Y208822D02*
X252801D01*
X252210Y208231D02*
Y209413D01*
X257525Y197011D02*
X258706D01*
X258116Y196421D02*
Y197602D01*
X263431Y186055D02*
X264612D01*
X264021Y185464D02*
Y186645D01*
X251620Y186055D02*
X252801D01*
X252210Y185464D02*
Y186645D01*
X239809Y186055D02*
X240990D01*
X240399Y185464D02*
Y186645D01*
X227998Y186055D02*
X229179D01*
X228588Y185464D02*
Y186645D01*
X216187Y186055D02*
X217368D01*
X216777Y185464D02*
Y186645D01*
X204376Y186055D02*
X205557D01*
X204966Y185464D02*
Y186645D01*
X198470Y197866D02*
X199651D01*
X199061Y197275D02*
Y198457D01*
X186659Y197011D02*
X187840D01*
X187250Y196421D02*
Y197602D01*
X180754Y208822D02*
X181935D01*
X181344Y208231D02*
Y209413D01*
X109887Y208822D02*
X111068D01*
X110478Y208231D02*
Y209413D01*
X103982Y197011D02*
X105163D01*
X104572Y196421D02*
Y197602D01*
X275242Y208822D02*
X276423D01*
X275832Y208231D02*
Y209413D01*
X157132Y186055D02*
X158313D01*
X157722Y185464D02*
Y186645D01*
X168942Y186055D02*
X170124D01*
X169533Y185464D02*
Y186645D01*
X180754Y186055D02*
X181935D01*
X181344Y185464D02*
Y186645D01*
X192565Y186055D02*
X193746D01*
X193155Y185464D02*
Y186645D01*
X151226Y197011D02*
X152407D01*
X151816Y196421D02*
Y197602D01*
X139415Y197011D02*
X140596D01*
X140006Y196421D02*
Y197602D01*
X109887Y185200D02*
X111068D01*
X110478Y184609D02*
Y185791D01*
X210281Y197011D02*
X211462D01*
X210872Y196421D02*
Y197602D01*
X275242Y185200D02*
X276423D01*
X275832Y184609D02*
Y185791D01*
X263431Y208822D02*
X264612D01*
X264021Y208231D02*
Y209413D01*
X145320Y185200D02*
X146502D01*
X145911Y184609D02*
Y185791D01*
X145320Y208822D02*
X146502D01*
X145911Y208231D02*
Y209413D01*
X222092Y197011D02*
X223273D01*
X222683Y196421D02*
Y197602D01*
X115793Y197011D02*
X116974D01*
X116384Y196421D02*
Y197602D01*
X168942Y208822D02*
X170124D01*
X169533Y208231D02*
Y209413D01*
X133509Y185200D02*
X134691D01*
X134100Y184609D02*
Y185791D01*
X216187Y208822D02*
X217368D01*
X216777Y208231D02*
Y209413D01*
X281147Y197011D02*
X282328D01*
X281738Y196421D02*
Y197602D01*
X157132Y208822D02*
X158313D01*
X157722Y208231D02*
Y209413D01*
X287053Y185200D02*
X288234D01*
X287643Y184609D02*
Y185791D01*
X121698Y208822D02*
X122880D01*
X122289Y208231D02*
Y209413D01*
X227998Y208822D02*
X229179D01*
X228588Y208231D02*
Y209413D01*
X204376Y208822D02*
X205557D01*
X204966Y208231D02*
Y209413D01*
X233903Y197011D02*
X235084D01*
X234494Y196421D02*
Y197602D01*
X174848Y197011D02*
X176029D01*
X175439Y196421D02*
Y197602D01*
X98076Y185200D02*
X99257D01*
X98667Y184609D02*
Y185791D01*
X163037Y197011D02*
X164218D01*
X163628Y196421D02*
Y197602D01*
X127604Y197011D02*
X128785D01*
X128194Y196421D02*
Y197602D01*
X245714Y197011D02*
X246895D01*
X246305Y196421D02*
Y197602D01*
X239809Y208822D02*
X240990D01*
X240399Y208231D02*
Y209413D01*
X192565Y208822D02*
X193746D01*
X193155Y208231D02*
Y209413D01*
X121698Y185200D02*
X122880D01*
X122289Y184609D02*
Y185791D01*
X269336Y197011D02*
X270517D01*
X269927Y196421D02*
Y197602D01*
X133509Y208822D02*
X134691D01*
X134100Y208231D02*
Y209413D01*
X-40884Y372500D02*
X-38916D01*
X-39900Y371516D02*
Y373484D01*
X-40884Y70000D02*
X-38916D01*
X-39900Y69016D02*
Y70984D01*
X426516Y70000D02*
X428484D01*
X427500Y69016D02*
Y70984D01*
X421716Y372500D02*
X423684D01*
X422700Y371516D02*
Y373484D01*
X416250Y200132D02*
X417431D01*
X416841Y199542D02*
Y200723D01*
X432780Y212008D02*
X434748D01*
X433764Y211024D02*
Y212992D01*
X368672Y187500D02*
X370640D01*
X369656Y186516D02*
Y188484D01*
X168616Y134800D02*
X170584D01*
X169600Y133816D02*
Y135784D01*
X132916Y133200D02*
X134884D01*
X133900Y132216D02*
Y134184D01*
X102816Y144100D02*
X104784D01*
X103800Y143116D02*
Y145084D01*
X142174Y146300D02*
X143355D01*
X142764Y145709D02*
Y146891D01*
X64216Y117500D02*
X66184D01*
X65200Y116516D02*
Y118484D01*
X82810Y114500D02*
X83991D01*
X83400Y113909D02*
Y115091D01*
X73616Y189800D02*
X75584D01*
X74600Y188816D02*
Y190784D01*
X72616Y268032D02*
X74584D01*
X73600Y267048D02*
Y269016D01*
X72580Y173381D02*
X74548D01*
X73564Y172397D02*
Y174366D01*
X88334Y222000D02*
X90303D01*
X89319Y221016D02*
Y222984D01*
X58671Y192321D02*
X60640D01*
X59655Y191337D02*
Y193305D01*
X73613Y228100D02*
X75513D01*
X74563Y227150D02*
Y229050D01*
X83250Y251900D02*
X85150D01*
X84200Y250950D02*
Y252850D01*
X93416Y270000D02*
X95384D01*
X94400Y269016D02*
Y270984D01*
X389516Y72800D02*
X391484D01*
X390500Y71816D02*
Y73784D01*
X190416Y357500D02*
X192384D01*
X191400Y356516D02*
Y358484D01*
X-71500Y279913D02*
X-69600D01*
X-70550Y278963D02*
Y280863D01*
X-71316Y272208D02*
X-69347D01*
X-70332Y271224D02*
Y273192D01*
X426480Y140108D02*
X428448D01*
X427464Y139124D02*
Y141092D01*
X466447Y152600D02*
X467628D01*
X467037Y152009D02*
Y153191D01*
X460541Y164411D02*
X461722D01*
X461132Y163821D02*
Y165002D01*
X329606Y64900D02*
X331574D01*
X330590Y63916D02*
Y65884D01*
X339305Y64900D02*
X341274D01*
X340290Y63916D02*
Y65884D01*
X389016Y107200D02*
X390984D01*
X390000Y106216D02*
Y108184D01*
X321236Y106458D02*
X322418D01*
X321827Y105867D02*
Y107048D01*
X327591Y106458D02*
X328772D01*
X328182Y105867D02*
Y107048D01*
X421397Y181208D02*
X423366D01*
X422381Y180224D02*
Y182192D01*
X375287Y321891D02*
X377255D01*
X376271Y320907D02*
Y322876D01*
X327591Y98939D02*
X328772D01*
X328182Y98349D02*
Y99530D01*
X320878Y98939D02*
X322059D01*
X321469Y98349D02*
Y99530D01*
X16016Y98900D02*
X17984D01*
X17000Y97916D02*
Y99884D01*
X15916Y114631D02*
X17885D01*
X16901Y113646D02*
Y115615D01*
X368672Y181800D02*
X370640D01*
X369656Y180816D02*
Y182784D01*
X262185Y26300D02*
X263366D01*
X262775Y25709D02*
Y26891D01*
X248860Y26300D02*
X250041D01*
X249450Y25709D02*
Y26891D01*
X286796Y26300D02*
X287977D01*
X287387Y25709D02*
Y26891D01*
X243129Y19226D02*
X244310D01*
X243719Y18635D02*
Y19816D01*
X255405Y19226D02*
X256586D01*
X255995Y18635D02*
Y19816D01*
X268040Y19226D02*
X269221D01*
X268630Y18635D02*
Y19816D01*
X293241Y19226D02*
X294422D01*
X293831Y18635D02*
Y19816D01*
X280964Y19226D02*
X282146D01*
X281555Y18635D02*
Y19816D01*
X237274Y26300D02*
X238455D01*
X237864Y25709D02*
Y26891D01*
X275110Y26300D02*
X276290D01*
X275700Y25709D02*
Y26891D01*
X307092Y34029D02*
X308273D01*
X307682Y33439D02*
Y34620D01*
X299750Y26446D02*
X300932D01*
X300341Y25856D02*
Y27037D01*
X293343Y34604D02*
X294524D01*
X293933Y34013D02*
Y35194D01*
X307092Y19226D02*
X308273D01*
X307682Y18635D02*
Y19816D01*
X254714Y34101D02*
X255896D01*
X255305Y33511D02*
Y34692D01*
X243129Y34101D02*
X244310D01*
X243719Y33511D02*
Y34692D01*
X63150Y313600D02*
X65050D01*
X64100Y312650D02*
Y314550D01*
X14932Y253208D02*
X16901D01*
X15916Y252224D02*
Y254192D01*
X4280Y253208D02*
X6248D01*
X5264Y252224D02*
Y254192D01*
X59703Y249054D02*
X61672D01*
X60688Y248070D02*
Y250038D01*
X12016Y203500D02*
X13984D01*
X13000Y202516D02*
Y204484D01*
X7550Y127700D02*
X9450D01*
X8500Y126750D02*
Y128650D01*
X-2909Y160208D02*
X-1009D01*
X-1959Y159258D02*
Y161158D01*
X17175Y180493D02*
X19143D01*
X18159Y179509D02*
Y181477D01*
X-25384Y339200D02*
X-23416D01*
X-24400Y338216D02*
Y340184D01*
X15016Y282700D02*
X16984D01*
X16000Y281716D02*
Y283684D01*
X19950Y311000D02*
X21850D01*
X20900Y310050D02*
Y311950D01*
X15916Y123996D02*
X17885D01*
X16901Y123012D02*
Y124980D01*
X27643Y178258D02*
X29612D01*
X28628Y177273D02*
Y179242D01*
X11731Y167857D02*
X13699D01*
X12715Y166873D02*
Y168841D01*
X307092Y58940D02*
X308273D01*
X307682Y58350D02*
Y59531D01*
X300667Y39884D02*
X301848D01*
X301258Y39294D02*
Y40475D01*
X294093Y45615D02*
X295274D01*
X294683Y45024D02*
Y46205D01*
X307092Y45615D02*
X308273D01*
X307682Y45024D02*
Y46205D01*
X300667Y52160D02*
X301848D01*
X301258Y51570D02*
Y52751D01*
X294274Y70526D02*
X295456D01*
X294865Y69935D02*
Y71116D01*
X294274Y58940D02*
X295456D01*
X294865Y58350D02*
Y59531D01*
X300667Y64795D02*
X301848D01*
X301258Y64205D02*
Y65386D01*
X172559Y25267D02*
X173741D01*
X173150Y24676D02*
Y25857D01*
X177008Y19412D02*
X178190D01*
X177599Y18821D02*
Y20002D01*
X168674Y19412D02*
X169855D01*
X169264Y18821D02*
Y20002D01*
X168674Y30997D02*
X169855D01*
X169264Y30407D02*
Y31588D01*
X177008Y30997D02*
X178190D01*
X177599Y30407D02*
Y31588D01*
X177008Y44543D02*
X178190D01*
X177599Y43952D02*
Y45134D01*
X168674Y44543D02*
X169855D01*
X169264Y43952D02*
Y45134D01*
X172559Y37543D02*
X173741D01*
X173150Y36952D02*
Y38133D01*
X125009Y52100D02*
X126191D01*
X125600Y51509D02*
Y52691D01*
X121124Y59100D02*
X122305D01*
X121714Y58509D02*
Y59691D01*
X129458Y59100D02*
X130640D01*
X130049Y58509D02*
Y59691D01*
X129458Y45555D02*
X130640D01*
X130049Y44964D02*
Y46145D01*
X121124Y45555D02*
X122305D01*
X121714Y44964D02*
Y46145D01*
X43999Y269089D02*
X45967D01*
X44983Y268105D02*
Y270073D01*
X45321Y164308D02*
X47290D01*
X46305Y163324D02*
Y165292D01*
X-23020Y101208D02*
X-21052D01*
X-22036Y100224D02*
Y102192D01*
X178480Y259408D02*
X180448D01*
X179464Y258424D02*
Y260392D01*
X86917Y43400D02*
X88098D01*
X87508Y42809D02*
Y43991D01*
X127892Y100475D02*
X129073D01*
X128482Y99885D02*
Y101066D01*
X460541Y306143D02*
X461722D01*
X461132Y305553D02*
Y306734D01*
X460541Y282521D02*
X461722D01*
X461132Y281931D02*
Y283112D01*
X466447Y270710D02*
X467628D01*
X467037Y270120D02*
Y271301D01*
X460541Y258899D02*
X461722D01*
X461132Y258309D02*
Y259490D01*
X466447Y247088D02*
X467628D01*
X467037Y246498D02*
Y247679D01*
X460541Y235277D02*
X461722D01*
X461132Y234687D02*
Y235868D01*
X466447Y223466D02*
X467628D01*
X467037Y222876D02*
Y224057D01*
X460541Y211655D02*
X461722D01*
X461132Y211065D02*
Y212246D01*
X466447Y199844D02*
X467628D01*
X467037Y199253D02*
Y200435D01*
X460541Y188033D02*
X461722D01*
X461132Y187443D02*
Y188624D01*
X466447Y176222D02*
X467628D01*
X467037Y175631D02*
Y176813D01*
X460541Y140789D02*
X461722D01*
X461132Y140198D02*
Y141379D01*
X176180Y282908D02*
X178148D01*
X177164Y281924D02*
Y283892D01*
X191045Y109779D02*
X192226D01*
X191635Y109188D02*
Y110369D01*
X214713Y100475D02*
X215894D01*
X215303Y99885D02*
Y101066D01*
X16706Y273048D02*
X18606D01*
X17656Y272098D02*
Y273998D01*
X56509Y235351D02*
X58409D01*
X57459Y234401D02*
Y236301D01*
X104224Y109779D02*
X105405D01*
X104814Y109188D02*
Y110369D01*
X167874Y95808D02*
X169055D01*
X168464Y95217D02*
Y96399D01*
X-63758Y302208D02*
X-61758D01*
X-62758Y301208D02*
Y303208D01*
X152080Y146308D02*
X154048D01*
X153064Y145324D02*
Y147292D01*
X416274Y187308D02*
X417455D01*
X416864Y186717D02*
Y187899D01*
X-63586Y190008D02*
X-61686D01*
X-62636Y189058D02*
Y190958D01*
M02*
