G04*
G04 #@! TF.GenerationSoftware,Altium Limited,Altium Designer,21.4.1 (30)*
G04*
G04 Layer_Color=2752767*
%FSLAX25Y25*%
%MOIN*%
G70*
G04*
G04 #@! TF.SameCoordinates,A47B8419-E6DC-47D0-8E32-9BAF03E0F130*
G04*
G04*
G04 #@! TF.FilePolarity,Positive*
G04*
G01*
G75*
%ADD128C,0.00200*%
%ADD129C,0.00267*%
%ADD130C,0.00133*%
D128*
X156513Y155954D02*
Y157554D01*
X158113D01*
Y155954D01*
X156513D01*
X166513Y165402D02*
Y167002D01*
X168113D01*
Y165402D01*
X166513D01*
Y155954D02*
Y157554D01*
X168113D01*
Y155954D01*
X166513D01*
X176513Y165402D02*
Y167002D01*
X178113D01*
Y165402D01*
X176513D01*
X186513Y155954D02*
Y157554D01*
X188113D01*
Y155954D01*
X186513D01*
X176513D02*
Y157554D01*
X178113D01*
Y155954D01*
X176513D01*
X196513D02*
Y157554D01*
X198113D01*
Y155954D01*
X196513D01*
X186513Y165402D02*
Y167002D01*
X188113D01*
Y165402D01*
X186513D01*
X196513D02*
Y167002D01*
X198113D01*
Y165402D01*
X196513D01*
X206513D02*
Y167002D01*
X208113D01*
Y165402D01*
X206513D01*
Y155954D02*
Y157554D01*
X208113D01*
Y155954D01*
X206513D01*
X216513Y165402D02*
Y167002D01*
X218113D01*
Y165402D01*
X216513D01*
Y155954D02*
Y157554D01*
X218113D01*
Y155954D01*
X216513D01*
X226513D02*
Y157554D01*
X228113D01*
Y155954D01*
X226513D01*
Y165402D02*
Y167002D01*
X228113D01*
Y165402D01*
X226513D01*
X236513D02*
Y167002D01*
X238113D01*
Y165402D01*
X236513D01*
X246513D02*
Y167002D01*
X248113D01*
Y165402D01*
X246513D01*
Y155954D02*
Y157554D01*
X248113D01*
Y155954D01*
X246513D01*
X236513D02*
Y157554D01*
X238113D01*
Y155954D01*
X236513D01*
X256513D02*
Y157554D01*
X258113D01*
Y155954D01*
X256513D01*
Y165402D02*
Y167002D01*
X258113D01*
Y165402D01*
X256513D01*
X266513D02*
Y167002D01*
X268113D01*
Y165402D01*
X266513D01*
Y155954D02*
Y157554D01*
X268113D01*
Y155954D01*
X266513D01*
X276513Y165402D02*
Y167002D01*
X278113D01*
Y165402D01*
X276513D01*
Y155954D02*
Y157554D01*
X278113D01*
Y155954D01*
X276513D01*
X286513Y165402D02*
Y167002D01*
X288113D01*
Y165402D01*
X286513D01*
Y155954D02*
Y157554D01*
X288113D01*
Y155954D01*
X286513D01*
X296513Y165402D02*
Y167002D01*
X298113D01*
Y165402D01*
X296513D01*
Y155954D02*
Y157554D01*
X298113D01*
Y155954D01*
X296513D01*
X306513Y165402D02*
Y167002D01*
X308113D01*
Y165402D01*
X306513D01*
Y155954D02*
Y157554D01*
X308113D01*
Y155954D01*
X306513D01*
X316513Y165402D02*
Y167002D01*
X318113D01*
Y165402D01*
X316513D01*
Y155954D02*
Y157554D01*
X318113D01*
Y155954D01*
X316513D01*
X116513D02*
Y157554D01*
X118113D01*
Y155954D01*
X116513D01*
X106513Y165402D02*
Y167002D01*
X108113D01*
Y165402D01*
X106513D01*
X116513D02*
Y167002D01*
X118113D01*
Y165402D01*
X116513D01*
X126513Y155954D02*
Y157554D01*
X128113D01*
Y155954D01*
X126513D01*
X106513D02*
Y157554D01*
X108113D01*
Y155954D01*
X106513D01*
X126513Y165402D02*
Y167002D01*
X128113D01*
Y165402D01*
X126513D01*
X136513D02*
Y167002D01*
X138113D01*
Y165402D01*
X136513D01*
Y155954D02*
Y157554D01*
X138113D01*
Y155954D01*
X136513D01*
X146513Y165402D02*
Y167002D01*
X148113D01*
Y165402D01*
X146513D01*
Y155954D02*
Y157554D01*
X148113D01*
Y155954D01*
X146513D01*
X156513Y165402D02*
Y167002D01*
X158113D01*
Y165402D01*
X156513D01*
X286513Y305048D02*
Y306648D01*
X288113D01*
Y305048D01*
X286513D01*
X236513Y295599D02*
Y297199D01*
X238113D01*
Y295599D01*
X236513D01*
X276513Y305048D02*
Y306648D01*
X278113D01*
Y305048D01*
X276513D01*
X246513D02*
Y306648D01*
X248113D01*
Y305048D01*
X246513D01*
X256513D02*
Y306648D01*
X258113D01*
Y305048D01*
X256513D01*
X276513Y295599D02*
Y297199D01*
X278113D01*
Y295599D01*
X276513D01*
X266513Y305048D02*
Y306648D01*
X268113D01*
Y305048D01*
X266513D01*
Y295599D02*
Y297199D01*
X268113D01*
Y295599D01*
X266513D01*
X306513Y305048D02*
Y306648D01*
X308113D01*
Y305048D01*
X306513D01*
X316513D02*
Y306648D01*
X318113D01*
Y305048D01*
X316513D01*
X296513Y295599D02*
Y297199D01*
X298113D01*
Y295599D01*
X296513D01*
X306513D02*
Y297199D01*
X308113D01*
Y295599D01*
X306513D01*
X296513Y305048D02*
Y306648D01*
X298113D01*
Y305048D01*
X296513D01*
X146513D02*
Y306648D01*
X148113D01*
Y305048D01*
X146513D01*
X156513D02*
Y306648D01*
X158113D01*
Y305048D01*
X156513D01*
X136513D02*
Y306648D01*
X138113D01*
Y305048D01*
X136513D01*
X116513D02*
Y306648D01*
X118113D01*
Y305048D01*
X116513D01*
X106513D02*
Y306648D01*
X108113D01*
Y305048D01*
X106513D01*
X166513D02*
Y306648D01*
X168113D01*
Y305048D01*
X166513D01*
X126513D02*
Y306648D01*
X128113D01*
Y305048D01*
X126513D01*
X146513Y295599D02*
Y297199D01*
X148113D01*
Y295599D01*
X146513D01*
X136513D02*
Y297199D01*
X138113D01*
Y295599D01*
X136513D01*
X126513D02*
Y297199D01*
X128113D01*
Y295599D01*
X126513D01*
X116513D02*
Y297199D01*
X118113D01*
Y295599D01*
X116513D01*
X106513D02*
Y297199D01*
X108113D01*
Y295599D01*
X106513D01*
X156513D02*
Y297199D01*
X158113D01*
Y295599D01*
X156513D01*
X166513D02*
Y297199D01*
X168113D01*
Y295599D01*
X166513D01*
X286513D02*
Y297199D01*
X288113D01*
Y295599D01*
X286513D01*
X246513D02*
Y297199D01*
X248113D01*
Y295599D01*
X246513D01*
X256513D02*
Y297199D01*
X258113D01*
Y295599D01*
X256513D01*
X316513D02*
Y297199D01*
X318113D01*
Y295599D01*
X316513D01*
X176513Y305048D02*
Y306648D01*
X178113D01*
Y305048D01*
X176513D01*
X216513D02*
Y306648D01*
X218113D01*
Y305048D01*
X216513D01*
X206513Y295599D02*
Y297199D01*
X208113D01*
Y295599D01*
X206513D01*
X186513D02*
Y297199D01*
X188113D01*
Y295599D01*
X186513D01*
X196513Y305048D02*
Y306648D01*
X198113D01*
Y305048D01*
X196513D01*
X186513D02*
Y306648D01*
X188113D01*
Y305048D01*
X186513D01*
X196513Y295599D02*
Y297199D01*
X198113D01*
Y295599D01*
X196513D01*
X206513Y305048D02*
Y306648D01*
X208113D01*
Y305048D01*
X206513D01*
X176513Y295599D02*
Y297199D01*
X178113D01*
Y295599D01*
X176513D01*
X226513Y305048D02*
Y306648D01*
X228113D01*
Y305048D01*
X226513D01*
X216513Y295599D02*
Y297199D01*
X218113D01*
Y295599D01*
X216513D01*
X226513D02*
Y297199D01*
X228113D01*
Y295599D01*
X226513D01*
X236513Y305048D02*
Y306648D01*
X238113D01*
Y305048D01*
X236513D01*
X-1736Y310439D02*
Y312039D01*
X-136D01*
Y310439D01*
X-1736D01*
Y320308D02*
Y321908D01*
X-136D01*
Y320308D01*
X-1736D01*
Y340045D02*
Y341646D01*
X-136D01*
Y340045D01*
X-1736D01*
Y330177D02*
Y331777D01*
X-136D01*
Y330177D01*
X-1736D01*
X6306Y401898D02*
X5505Y403499D01*
X7106D01*
X6306Y401898D01*
X174695Y345895D02*
Y347495D01*
X176295D01*
Y345895D01*
X174695D01*
X184564D02*
Y347495D01*
X186164D01*
Y345895D01*
X184564D01*
X204302D02*
Y347495D01*
X205902D01*
Y345895D01*
X204302D01*
X194433D02*
Y347495D01*
X196033D01*
Y345895D01*
X194433D01*
X295521Y92700D02*
Y94300D01*
X297121D01*
Y92700D01*
X295521D01*
X285679Y92700D02*
Y94300D01*
X287279D01*
Y92700D01*
X285679D01*
X349460Y92700D02*
Y94300D01*
X351060D01*
Y92700D01*
X349460D01*
X339617Y92700D02*
Y94300D01*
X341217D01*
Y92700D01*
X339617D01*
X318057Y27000D02*
X318458Y27400D01*
X318858D01*
X318458Y27800D01*
X318858Y28200D01*
X318458D01*
X318057Y28600D01*
X317657Y28200D01*
X317257D01*
X317657Y27800D01*
X317257Y27400D01*
X317657D01*
X318057Y27000D01*
X337742Y27000D02*
X338142Y27400D01*
X338543D01*
X338142Y27800D01*
X338543Y28200D01*
X338142D01*
X337742Y28600D01*
X337343Y28200D01*
X336943D01*
X337343Y27800D01*
X336943Y27400D01*
X337343D01*
X337742Y27000D01*
X4683Y117835D02*
X5083Y118635D01*
X4683Y119435D01*
X5483Y119035D01*
X6283Y119435D01*
X5883Y118635D01*
X6283Y117835D01*
X5483Y118235D01*
X4683Y117835D01*
Y196181D02*
X5083Y196981D01*
X4683Y197781D01*
X5483Y197381D01*
X6283Y197781D01*
X5883Y196981D01*
X6283Y196181D01*
X5483Y196581D01*
X4683Y196181D01*
X70925Y82008D02*
X71325Y82808D01*
X70925Y83608D01*
X71725Y83208D01*
X72525Y83608D01*
X72125Y82808D01*
X72525Y82008D01*
X71725Y82408D01*
X70925Y82008D01*
X149271D02*
X149671Y82808D01*
X149271Y83608D01*
X150071Y83208D01*
X150871Y83608D01*
X150471Y82808D01*
X150871Y82008D01*
X150071Y82408D01*
X149271Y82008D01*
X4683Y288929D02*
X5083Y289729D01*
X4683Y290529D01*
X5483Y290129D01*
X6283Y290529D01*
X5883Y289729D01*
X6283Y288929D01*
X5483Y289329D01*
X4683Y288929D01*
Y210583D02*
X5083Y211383D01*
X4683Y212183D01*
X5483Y211783D01*
X6283Y212183D01*
X5883Y211383D01*
X6283Y210583D01*
X5483Y210983D01*
X4683Y210583D01*
X247216Y345948D02*
Y347548D01*
X248816D01*
Y345948D01*
X247216D01*
X257084D02*
Y347548D01*
X258684D01*
Y345948D01*
X257084D01*
X276822D02*
Y347548D01*
X278422D01*
Y345948D01*
X276822D01*
X266953D02*
Y347548D01*
X268553D01*
Y345948D01*
X266953D01*
X124558Y345895D02*
Y347495D01*
X126158D01*
Y345895D01*
X124558D01*
X134426D02*
Y347495D01*
X136026D01*
Y345895D01*
X134426D01*
X114689D02*
Y347495D01*
X116289D01*
Y345895D01*
X114689D01*
X104820D02*
Y347495D01*
X106420D01*
Y345895D01*
X104820D01*
X340006D02*
Y347495D01*
X341606D01*
Y345895D01*
X340006D01*
X349875D02*
Y347495D01*
X351475D01*
Y345895D01*
X349875D01*
X330138D02*
Y347495D01*
X331738D01*
Y345895D01*
X330138D01*
X320269D02*
Y347495D01*
X321869D01*
Y345895D01*
X320269D01*
X35164Y125365D02*
Y126965D01*
X36764D01*
Y125365D01*
X35164D01*
Y135208D02*
Y136808D01*
X36764D01*
Y135208D01*
X35164D01*
Y145051D02*
Y146651D01*
X36764D01*
Y145051D01*
X35164D01*
X60364Y140829D02*
Y142429D01*
X61964D01*
Y140829D01*
X60364D01*
X60364Y130987D02*
Y132587D01*
X61964D01*
Y130987D01*
X60364D01*
X35164Y221508D02*
Y223108D01*
X36764D01*
Y221508D01*
X35164D01*
Y211666D02*
Y213266D01*
X36764D01*
Y211666D01*
X35164D01*
Y201823D02*
Y203423D01*
X36764D01*
Y201823D01*
X35164D01*
X60464Y206497D02*
Y208097D01*
X62064D01*
Y206497D01*
X60464D01*
X60464Y216340D02*
Y217940D01*
X62064D01*
Y216340D01*
X60464D01*
X35034Y297966D02*
Y299566D01*
X36634D01*
Y297966D01*
X35034D01*
Y288124D02*
Y289724D01*
X36634D01*
Y288124D01*
X35034D01*
Y278281D02*
Y279881D01*
X36634D01*
Y278281D01*
X35034D01*
X60464Y282008D02*
Y283608D01*
X62064D01*
Y282008D01*
X60464D01*
X60464Y291850D02*
Y293450D01*
X62064D01*
Y291850D01*
X60464D01*
X230664Y74008D02*
Y75608D01*
X232264D01*
Y74008D01*
X230664D01*
Y64008D02*
Y65608D01*
X232264D01*
Y64008D01*
X230664D01*
X220664Y74008D02*
Y75608D01*
X222264D01*
Y74008D01*
X220664D01*
Y64008D02*
Y65608D01*
X222264D01*
Y64008D01*
X220664D01*
X210664Y74008D02*
Y75608D01*
X212264D01*
Y74008D01*
X210664D01*
Y64008D02*
Y65608D01*
X212264D01*
Y64008D01*
X210664D01*
X200664Y74008D02*
Y75608D01*
X202264D01*
Y74008D01*
X200664D01*
Y64008D02*
Y65608D01*
X202264D01*
Y64008D01*
X200664D01*
X190664Y74008D02*
Y75608D01*
X192264D01*
Y74008D01*
X190664D01*
Y64008D02*
Y65608D01*
X192264D01*
Y64008D01*
X190664D01*
X180664Y74008D02*
Y75608D01*
X182264D01*
Y74008D01*
X180664D01*
Y64008D02*
Y65608D01*
X182264D01*
Y64008D01*
X180664D01*
X66164Y25108D02*
Y24708D01*
X66964D01*
Y25108D01*
X67364D01*
Y25908D01*
X66964D01*
Y26308D01*
X66164D01*
Y25908D01*
X65764D01*
Y25108D01*
X66164D01*
X46164D02*
Y24708D01*
X46964D01*
Y25108D01*
X47364D01*
Y25908D01*
X46964D01*
Y26308D01*
X46164D01*
Y25908D01*
X45764D01*
Y25108D01*
X46164D01*
X66164Y35108D02*
Y34708D01*
X66964D01*
Y35108D01*
X67364D01*
Y35908D01*
X66964D01*
Y36308D01*
X66164D01*
Y35908D01*
X65764D01*
Y35108D01*
X66164D01*
X56164D02*
Y34708D01*
X56964D01*
Y35108D01*
X57364D01*
Y35908D01*
X56964D01*
Y36308D01*
X56164D01*
Y35908D01*
X55764D01*
Y35108D01*
X56164D01*
X46164D02*
Y34708D01*
X46964D01*
Y35108D01*
X47364D01*
Y35908D01*
X46964D01*
Y36308D01*
X46164D01*
Y35908D01*
X45764D01*
Y35108D01*
X46164D01*
X66164Y45108D02*
Y44708D01*
X66964D01*
Y45108D01*
X67364D01*
Y45908D01*
X66964D01*
Y46308D01*
X66164D01*
Y45908D01*
X65764D01*
Y45108D01*
X66164D01*
X56164D02*
Y44708D01*
X56964D01*
Y45108D01*
X57364D01*
Y45908D01*
X56964D01*
Y46308D01*
X56164D01*
Y45908D01*
X55764D01*
Y45108D01*
X56164D01*
X46164D02*
Y44708D01*
X46964D01*
Y45108D01*
X47364D01*
Y45908D01*
X46964D01*
Y46308D01*
X46164D01*
Y45908D01*
X45764D01*
Y45108D01*
X46164D01*
X66164Y55108D02*
Y54708D01*
X66964D01*
Y55108D01*
X67364D01*
Y55908D01*
X66964D01*
Y56308D01*
X66164D01*
Y55908D01*
X65764D01*
Y55108D01*
X66164D01*
X56164D02*
Y54708D01*
X56964D01*
Y55108D01*
X57364D01*
Y55908D01*
X56964D01*
Y56308D01*
X56164D01*
Y55908D01*
X55764D01*
Y55108D01*
X56164D01*
X46164D02*
Y54708D01*
X46964D01*
Y55108D01*
X47364D01*
Y55908D01*
X46964D01*
Y56308D01*
X46164D01*
Y55908D01*
X45764D01*
Y55108D01*
X46164D01*
X56164Y25108D02*
Y24708D01*
X56964D01*
Y25108D01*
X57364D01*
Y25908D01*
X56964D01*
Y26308D01*
X56164D01*
Y25908D01*
X55764D01*
Y25108D01*
X56164D01*
X363879Y138570D02*
Y140170D01*
X365479D01*
Y138570D01*
X363879D01*
Y128702D02*
Y130302D01*
X365479D01*
Y128702D01*
X363879D01*
Y148439D02*
Y150039D01*
X365479D01*
Y148439D01*
X363879D01*
Y158308D02*
Y159908D01*
X365479D01*
Y158308D01*
X363879D01*
Y213070D02*
Y214670D01*
X365479D01*
Y213070D01*
X363879D01*
Y203202D02*
Y204802D01*
X365479D01*
Y203202D01*
X363879D01*
Y222939D02*
Y224539D01*
X365479D01*
Y222939D01*
X363879D01*
Y232808D02*
Y234408D01*
X365479D01*
Y232808D01*
X363879D01*
Y287570D02*
Y289170D01*
X365479D01*
Y287570D01*
X363879D01*
Y277702D02*
Y279302D01*
X365479D01*
Y277702D01*
X363879D01*
Y297439D02*
Y299039D01*
X365479D01*
Y297439D01*
X363879D01*
Y307308D02*
Y308908D01*
X365479D01*
Y307308D01*
X363879D01*
X35726Y345796D02*
Y347396D01*
X37326D01*
Y345796D01*
X35726D01*
X45594D02*
Y347396D01*
X47194D01*
Y345796D01*
X45594D01*
X65332D02*
Y347396D01*
X66932D01*
Y345796D01*
X65332D01*
X55463D02*
Y347396D01*
X57063D01*
Y345796D01*
X55463D01*
X142500Y58300D02*
Y59900D01*
X144100D01*
Y58300D01*
X142500D01*
X152342Y58300D02*
Y59900D01*
X153943D01*
Y58300D01*
X152342D01*
X97579Y58300D02*
Y59900D01*
X99179D01*
Y58300D01*
X97579D01*
X107421Y58300D02*
Y59900D01*
X109021D01*
Y58300D01*
X107421D01*
X142664Y30800D02*
Y32400D01*
X144264D01*
Y30800D01*
X142664D01*
X152507Y30800D02*
Y32400D01*
X154107D01*
Y30800D01*
X152507D01*
X96879Y30800D02*
Y32400D01*
X98479D01*
Y30800D01*
X96879D01*
X106721Y30800D02*
Y32400D01*
X108321D01*
Y30800D01*
X106721D01*
X146870Y97811D02*
Y99411D01*
X148470D01*
Y97811D01*
X146870D01*
Y127437D02*
Y129037D01*
X148470D01*
Y127437D01*
X146870D01*
X156870D02*
Y129037D01*
X158470D01*
Y127437D01*
X156870D01*
Y97811D02*
Y99411D01*
X158470D01*
Y97811D01*
X156870D01*
X240107Y127437D02*
Y129037D01*
X241707D01*
Y127437D01*
X240107D01*
Y97811D02*
Y99411D01*
X241707D01*
Y97811D01*
X240107D01*
X248579Y127437D02*
Y129037D01*
X250179D01*
Y127437D01*
X248579D01*
Y97811D02*
Y99411D01*
X250179D01*
Y97811D01*
X248579D01*
X-13752Y110796D02*
X-13352D01*
X-12952Y111196D01*
X-12552Y110796D01*
X-12152D01*
Y111196D01*
X-12552Y111596D01*
X-12152Y111996D01*
Y112396D01*
X-12552D01*
X-12952Y111996D01*
X-13352Y112396D01*
X-13752D01*
Y111996D01*
X-13352Y111596D01*
X-13752Y111196D01*
Y110796D01*
Y120796D02*
X-13352D01*
X-12952Y121196D01*
X-12552Y120796D01*
X-12152D01*
Y121196D01*
X-12552Y121596D01*
X-12152Y121996D01*
Y122396D01*
X-12552D01*
X-12952Y121996D01*
X-13352Y122396D01*
X-13752D01*
Y121996D01*
X-13352Y121596D01*
X-13752Y121196D01*
Y120796D01*
Y130796D02*
X-13352D01*
X-12952Y131196D01*
X-12552Y130796D01*
X-12152D01*
Y131196D01*
X-12552Y131596D01*
X-12152Y131996D01*
Y132396D01*
X-12552D01*
X-12952Y131996D01*
X-13352Y132396D01*
X-13752D01*
Y131996D01*
X-13352Y131596D01*
X-13752Y131196D01*
Y130796D01*
Y140796D02*
X-13352D01*
X-12952Y141196D01*
X-12552Y140796D01*
X-12152D01*
Y141196D01*
X-12552Y141596D01*
X-12152Y141996D01*
Y142396D01*
X-12552D01*
X-12952Y141996D01*
X-13352Y142396D01*
X-13752D01*
Y141996D01*
X-13352Y141596D01*
X-13752Y141196D01*
Y140796D01*
Y150796D02*
X-13352D01*
X-12952Y151196D01*
X-12552Y150796D01*
X-12152D01*
Y151196D01*
X-12552Y151596D01*
X-12152Y151996D01*
Y152396D01*
X-12552D01*
X-12952Y151996D01*
X-13352Y152396D01*
X-13752D01*
Y151996D01*
X-13352Y151596D01*
X-13752Y151196D01*
Y150796D01*
Y160796D02*
X-13352D01*
X-12952Y161196D01*
X-12552Y160796D01*
X-12152D01*
Y161196D01*
X-12552Y161596D01*
X-12152Y161996D01*
Y162396D01*
X-12552D01*
X-12952Y161996D01*
X-13352Y162396D01*
X-13752D01*
Y161996D01*
X-13352Y161596D01*
X-13752Y161196D01*
Y160796D01*
Y170796D02*
X-13352D01*
X-12952Y171196D01*
X-12552Y170796D01*
X-12152D01*
Y171196D01*
X-12552Y171596D01*
X-12152Y171996D01*
Y172396D01*
X-12552D01*
X-12952Y171996D01*
X-13352Y172396D01*
X-13752D01*
Y171996D01*
X-13352Y171596D01*
X-13752Y171196D01*
Y170796D01*
Y180796D02*
X-13352D01*
X-12952Y181196D01*
X-12552Y180796D01*
X-12152D01*
Y181196D01*
X-12552Y181596D01*
X-12152Y181996D01*
Y182396D01*
X-12552D01*
X-12952Y181996D01*
X-13352Y182396D01*
X-13752D01*
Y181996D01*
X-13352Y181596D01*
X-13752Y181196D01*
Y180796D01*
X-45012D02*
X-44612D01*
X-44212Y181196D01*
X-43812Y180796D01*
X-43412D01*
Y181196D01*
X-43812Y181596D01*
X-43412Y181996D01*
Y182396D01*
X-43812D01*
X-44212Y181996D01*
X-44612Y182396D01*
X-45012D01*
Y181996D01*
X-44612Y181596D01*
X-45012Y181196D01*
Y180796D01*
Y170796D02*
X-44612D01*
X-44212Y171196D01*
X-43812Y170796D01*
X-43412D01*
Y171196D01*
X-43812Y171596D01*
X-43412Y171996D01*
Y172396D01*
X-43812D01*
X-44212Y171996D01*
X-44612Y172396D01*
X-45012D01*
Y171996D01*
X-44612Y171596D01*
X-45012Y171196D01*
Y170796D01*
Y160796D02*
X-44612D01*
X-44212Y161196D01*
X-43812Y160796D01*
X-43412D01*
Y161196D01*
X-43812Y161596D01*
X-43412Y161996D01*
Y162396D01*
X-43812D01*
X-44212Y161996D01*
X-44612Y162396D01*
X-45012D01*
Y161996D01*
X-44612Y161596D01*
X-45012Y161196D01*
Y160796D01*
Y150796D02*
X-44612D01*
X-44212Y151196D01*
X-43812Y150796D01*
X-43412D01*
Y151196D01*
X-43812Y151596D01*
X-43412Y151996D01*
Y152396D01*
X-43812D01*
X-44212Y151996D01*
X-44612Y152396D01*
X-45012D01*
Y151996D01*
X-44612Y151596D01*
X-45012Y151196D01*
Y150796D01*
Y140796D02*
X-44612D01*
X-44212Y141196D01*
X-43812Y140796D01*
X-43412D01*
Y141196D01*
X-43812Y141596D01*
X-43412Y141996D01*
Y142396D01*
X-43812D01*
X-44212Y141996D01*
X-44612Y142396D01*
X-45012D01*
Y141996D01*
X-44612Y141596D01*
X-45012Y141196D01*
Y140796D01*
Y130796D02*
X-44612D01*
X-44212Y131196D01*
X-43812Y130796D01*
X-43412D01*
Y131196D01*
X-43812Y131596D01*
X-43412Y131996D01*
Y132396D01*
X-43812D01*
X-44212Y131996D01*
X-44612Y132396D01*
X-45012D01*
Y131996D01*
X-44612Y131596D01*
X-45012Y131196D01*
Y130796D01*
Y120796D02*
X-44612D01*
X-44212Y121196D01*
X-43812Y120796D01*
X-43412D01*
Y121196D01*
X-43812Y121596D01*
X-43412Y121996D01*
Y122396D01*
X-43812D01*
X-44212Y121996D01*
X-44612Y122396D01*
X-45012D01*
Y121996D01*
X-44612Y121596D01*
X-45012Y121196D01*
Y120796D01*
Y110796D02*
X-44612D01*
X-44212Y111196D01*
X-43812Y110796D01*
X-43412D01*
Y111196D01*
X-43812Y111596D01*
X-43412Y111996D01*
Y112396D01*
X-43812D01*
X-44212Y111996D01*
X-44612Y112396D01*
X-45012D01*
Y111996D01*
X-44612Y111596D01*
X-45012Y111196D01*
Y110796D01*
X-13752Y221308D02*
X-13352D01*
X-12952Y221708D01*
X-12552Y221308D01*
X-12152D01*
Y221708D01*
X-12552Y222108D01*
X-12152Y222508D01*
Y222908D01*
X-12552D01*
X-12952Y222508D01*
X-13352Y222908D01*
X-13752D01*
Y222508D01*
X-13352Y222108D01*
X-13752Y221708D01*
Y221308D01*
Y231308D02*
X-13352D01*
X-12952Y231708D01*
X-12552Y231308D01*
X-12152D01*
Y231708D01*
X-12552Y232108D01*
X-12152Y232508D01*
Y232908D01*
X-12552D01*
X-12952Y232508D01*
X-13352Y232908D01*
X-13752D01*
Y232508D01*
X-13352Y232108D01*
X-13752Y231708D01*
Y231308D01*
Y241308D02*
X-13352D01*
X-12952Y241708D01*
X-12552Y241308D01*
X-12152D01*
Y241708D01*
X-12552Y242108D01*
X-12152Y242508D01*
Y242908D01*
X-12552D01*
X-12952Y242508D01*
X-13352Y242908D01*
X-13752D01*
Y242508D01*
X-13352Y242108D01*
X-13752Y241708D01*
Y241308D01*
Y251308D02*
X-13352D01*
X-12952Y251708D01*
X-12552Y251308D01*
X-12152D01*
Y251708D01*
X-12552Y252108D01*
X-12152Y252508D01*
Y252908D01*
X-12552D01*
X-12952Y252508D01*
X-13352Y252908D01*
X-13752D01*
Y252508D01*
X-13352Y252108D01*
X-13752Y251708D01*
Y251308D01*
Y261308D02*
X-13352D01*
X-12952Y261708D01*
X-12552Y261308D01*
X-12152D01*
Y261708D01*
X-12552Y262108D01*
X-12152Y262508D01*
Y262908D01*
X-12552D01*
X-12952Y262508D01*
X-13352Y262908D01*
X-13752D01*
Y262508D01*
X-13352Y262108D01*
X-13752Y261708D01*
Y261308D01*
Y271308D02*
X-13352D01*
X-12952Y271708D01*
X-12552Y271308D01*
X-12152D01*
Y271708D01*
X-12552Y272108D01*
X-12152Y272508D01*
Y272908D01*
X-12552D01*
X-12952Y272508D01*
X-13352Y272908D01*
X-13752D01*
Y272508D01*
X-13352Y272108D01*
X-13752Y271708D01*
Y271308D01*
Y281308D02*
X-13352D01*
X-12952Y281708D01*
X-12552Y281308D01*
X-12152D01*
Y281708D01*
X-12552Y282108D01*
X-12152Y282508D01*
Y282908D01*
X-12552D01*
X-12952Y282508D01*
X-13352Y282908D01*
X-13752D01*
Y282508D01*
X-13352Y282108D01*
X-13752Y281708D01*
Y281308D01*
Y291308D02*
X-13352D01*
X-12952Y291708D01*
X-12552Y291308D01*
X-12152D01*
Y291708D01*
X-12552Y292108D01*
X-12152Y292508D01*
Y292908D01*
X-12552D01*
X-12952Y292508D01*
X-13352Y292908D01*
X-13752D01*
Y292508D01*
X-13352Y292108D01*
X-13752Y291708D01*
Y291308D01*
X-45012D02*
X-44612D01*
X-44212Y291708D01*
X-43812Y291308D01*
X-43412D01*
Y291708D01*
X-43812Y292108D01*
X-43412Y292508D01*
Y292908D01*
X-43812D01*
X-44212Y292508D01*
X-44612Y292908D01*
X-45012D01*
Y292508D01*
X-44612Y292108D01*
X-45012Y291708D01*
Y291308D01*
Y281308D02*
X-44612D01*
X-44212Y281708D01*
X-43812Y281308D01*
X-43412D01*
Y281708D01*
X-43812Y282108D01*
X-43412Y282508D01*
Y282908D01*
X-43812D01*
X-44212Y282508D01*
X-44612Y282908D01*
X-45012D01*
Y282508D01*
X-44612Y282108D01*
X-45012Y281708D01*
Y281308D01*
Y271308D02*
X-44612D01*
X-44212Y271708D01*
X-43812Y271308D01*
X-43412D01*
Y271708D01*
X-43812Y272108D01*
X-43412Y272508D01*
Y272908D01*
X-43812D01*
X-44212Y272508D01*
X-44612Y272908D01*
X-45012D01*
Y272508D01*
X-44612Y272108D01*
X-45012Y271708D01*
Y271308D01*
Y261308D02*
X-44612D01*
X-44212Y261708D01*
X-43812Y261308D01*
X-43412D01*
Y261708D01*
X-43812Y262108D01*
X-43412Y262508D01*
Y262908D01*
X-43812D01*
X-44212Y262508D01*
X-44612Y262908D01*
X-45012D01*
Y262508D01*
X-44612Y262108D01*
X-45012Y261708D01*
Y261308D01*
Y251308D02*
X-44612D01*
X-44212Y251708D01*
X-43812Y251308D01*
X-43412D01*
Y251708D01*
X-43812Y252108D01*
X-43412Y252508D01*
Y252908D01*
X-43812D01*
X-44212Y252508D01*
X-44612Y252908D01*
X-45012D01*
Y252508D01*
X-44612Y252108D01*
X-45012Y251708D01*
Y251308D01*
Y241308D02*
X-44612D01*
X-44212Y241708D01*
X-43812Y241308D01*
X-43412D01*
Y241708D01*
X-43812Y242108D01*
X-43412Y242508D01*
Y242908D01*
X-43812D01*
X-44212Y242508D01*
X-44612Y242908D01*
X-45012D01*
Y242508D01*
X-44612Y242108D01*
X-45012Y241708D01*
Y241308D01*
Y231308D02*
X-44612D01*
X-44212Y231708D01*
X-43812Y231308D01*
X-43412D01*
Y231708D01*
X-43812Y232108D01*
X-43412Y232508D01*
Y232908D01*
X-43812D01*
X-44212Y232508D01*
X-44612Y232908D01*
X-45012D01*
Y232508D01*
X-44612Y232108D01*
X-45012Y231708D01*
Y231308D01*
Y221308D02*
X-44612D01*
X-44212Y221708D01*
X-43812Y221308D01*
X-43412D01*
Y221708D01*
X-43812Y222108D01*
X-43412Y222508D01*
Y222908D01*
X-43812D01*
X-44212Y222508D01*
X-44612Y222908D01*
X-45012D01*
Y222508D01*
X-44612Y222108D01*
X-45012Y221708D01*
Y221308D01*
X194720Y32500D02*
X195520Y33300D01*
X196320Y32500D01*
X195520Y31700D01*
X194720Y32500D01*
X208894D02*
X209694Y33300D01*
X210494Y32500D01*
X209694Y31700D01*
X208894Y32500D01*
X222280D02*
X223079Y33300D01*
X223880Y32500D01*
X223079Y31700D01*
X222280Y32500D01*
X6306Y31820D02*
X5505Y33420D01*
X7106D01*
X6306Y31820D01*
X376384Y401898D02*
X375584Y403499D01*
X377184D01*
X376384Y401898D01*
Y31820D02*
X375584Y33420D01*
X377184D01*
X376384Y31820D01*
X10000Y228500D02*
Y230100D01*
X11600D01*
Y228500D01*
X10000D01*
X10400Y228900D02*
Y229700D01*
X11200D01*
Y228900D01*
X10400D01*
X74400Y155192D02*
Y156792D01*
X76000D01*
Y155192D01*
X74400D01*
X74800Y155592D02*
Y156392D01*
X75600D01*
Y155592D01*
X74800D01*
X-39900Y371700D02*
X-40700Y373300D01*
X-39100D01*
X-39900Y371700D01*
Y372100D02*
X-40300Y372900D01*
X-39500D01*
X-39900Y372100D01*
Y69200D02*
X-40700Y70800D01*
X-39100D01*
X-39900Y69200D01*
Y69600D02*
X-40300Y70400D01*
X-39500D01*
X-39900Y69600D01*
X427500Y69200D02*
X426700Y70800D01*
X428300D01*
X427500Y69200D01*
Y69600D02*
X427100Y70400D01*
X427900D01*
X427500Y69600D01*
X422700Y371700D02*
X421900Y373300D01*
X423500D01*
X422700Y371700D01*
Y372100D02*
X422300Y372900D01*
X423100D01*
X422700Y372100D01*
X433764Y211208D02*
X432964Y212808D01*
X434564D01*
X433764Y211208D01*
Y211608D02*
X433364Y212408D01*
X434164D01*
X433764Y211608D01*
X369656Y186700D02*
X368856Y188300D01*
X370456D01*
X369656Y186700D01*
Y187100D02*
X369256Y187900D01*
X370056D01*
X369656Y187100D01*
X169600Y134000D02*
X168800Y135600D01*
X170400D01*
X169600Y134000D01*
Y134400D02*
X169200Y135200D01*
X170000D01*
X169600Y134400D01*
X133900Y132400D02*
X133100Y134000D01*
X134700D01*
X133900Y132400D01*
Y132800D02*
X133500Y133600D01*
X134300D01*
X133900Y132800D01*
X103800Y143300D02*
X103000Y144900D01*
X104600D01*
X103800Y143300D01*
Y143700D02*
X103400Y144500D01*
X104200D01*
X103800Y143700D01*
X65200Y116700D02*
X64400Y118300D01*
X66000D01*
X65200Y116700D01*
Y117100D02*
X64800Y117900D01*
X65600D01*
X65200Y117100D01*
X74600Y189000D02*
X73800Y190600D01*
X75400D01*
X74600Y189000D01*
Y189400D02*
X74200Y190200D01*
X75000D01*
X74600Y189400D01*
X73600Y267232D02*
X72800Y268832D01*
X74400D01*
X73600Y267232D01*
Y267632D02*
X73200Y268432D01*
X74000D01*
X73600Y267632D01*
X73564Y172582D02*
X72764Y174181D01*
X74364D01*
X73564Y172582D01*
Y172982D02*
X73164Y173782D01*
X73964D01*
X73564Y172982D01*
X89319Y221200D02*
X88519Y222800D01*
X90118D01*
X89319Y221200D01*
Y221600D02*
X88919Y222400D01*
X89719D01*
X89319Y221600D01*
X59655Y191521D02*
X58855Y193121D01*
X60456D01*
X59655Y191521D01*
Y191921D02*
X59255Y192721D01*
X60056D01*
X59655Y191921D01*
X73763Y227300D02*
Y228900D01*
X75363D01*
Y227300D01*
X73763D01*
X74163Y227700D02*
Y228500D01*
X74963D01*
Y227700D01*
X74163D01*
X83400Y251100D02*
Y252700D01*
X85000D01*
Y251100D01*
X83400D01*
X83800Y251500D02*
Y252300D01*
X84600D01*
Y251500D01*
X83800D01*
X94400Y269200D02*
X93600Y270800D01*
X95200D01*
X94400Y269200D01*
Y269600D02*
X94000Y270400D01*
X94800D01*
X94400Y269600D01*
X390500Y72000D02*
X389700Y73600D01*
X391300D01*
X390500Y72000D01*
Y72400D02*
X390100Y73200D01*
X390900D01*
X390500Y72400D01*
X191400Y356700D02*
X190600Y358300D01*
X192200D01*
X191400Y356700D01*
Y357100D02*
X191000Y357900D01*
X191800D01*
X191400Y357100D01*
X-71350Y279113D02*
Y280713D01*
X-69750D01*
Y279113D01*
X-71350D01*
X-70950Y279513D02*
Y280313D01*
X-70150D01*
Y279513D01*
X-70950D01*
X-70332Y271408D02*
X-71131Y273008D01*
X-69532D01*
X-70332Y271408D01*
Y271808D02*
X-70732Y272608D01*
X-69932D01*
X-70332Y271808D01*
X427464Y139308D02*
X426664Y140908D01*
X428264D01*
X427464Y139308D01*
Y139708D02*
X427064Y140508D01*
X427864D01*
X427464Y139708D01*
X330590Y64100D02*
X329790Y65700D01*
X331390D01*
X330590Y64100D01*
Y64500D02*
X330190Y65300D01*
X330990D01*
X330590Y64500D01*
X340290Y64100D02*
X339490Y65700D01*
X341090D01*
X340290Y64100D01*
Y64500D02*
X339890Y65300D01*
X340690D01*
X340290Y64500D01*
X390000Y106400D02*
X389200Y108000D01*
X390800D01*
X390000Y106400D01*
Y106800D02*
X389600Y107600D01*
X390400D01*
X390000Y106800D01*
X422381Y180408D02*
X421582Y182008D01*
X423181D01*
X422381Y180408D01*
Y180808D02*
X421981Y181608D01*
X422782D01*
X422381Y180808D01*
X376271Y321091D02*
X375471Y322691D01*
X377071D01*
X376271Y321091D01*
Y321491D02*
X375871Y322291D01*
X376671D01*
X376271Y321491D01*
X17000Y98100D02*
X16200Y99700D01*
X17800D01*
X17000Y98100D01*
Y98500D02*
X16600Y99300D01*
X17400D01*
X17000Y98500D01*
X16901Y113831D02*
X16101Y115431D01*
X17701D01*
X16901Y113831D01*
Y114231D02*
X16501Y115031D01*
X17301D01*
X16901Y114231D01*
X369656Y181000D02*
X368856Y182600D01*
X370456D01*
X369656Y181000D01*
Y181400D02*
X369256Y182200D01*
X370056D01*
X369656Y181400D01*
X63300Y312800D02*
Y314400D01*
X64900D01*
Y312800D01*
X63300D01*
X63700Y313200D02*
Y314000D01*
X64500D01*
Y313200D01*
X63700D01*
X15916Y252408D02*
X15116Y254008D01*
X16716D01*
X15916Y252408D01*
Y252808D02*
X15517Y253608D01*
X16317D01*
X15916Y252808D01*
X5264Y252408D02*
X4464Y254008D01*
X6064D01*
X5264Y252408D01*
Y252808D02*
X4864Y253608D01*
X5664D01*
X5264Y252808D01*
X60688Y248254D02*
X59888Y249854D01*
X61488D01*
X60688Y248254D01*
Y248654D02*
X60288Y249454D01*
X61088D01*
X60688Y248654D01*
X13000Y202700D02*
X12200Y204300D01*
X13800D01*
X13000Y202700D01*
Y203100D02*
X12600Y203900D01*
X13400D01*
X13000Y203100D01*
X7700Y126900D02*
Y128500D01*
X9300D01*
Y126900D01*
X7700D01*
X8100Y127300D02*
Y128100D01*
X8900D01*
Y127300D01*
X8100D01*
X-2759Y159408D02*
Y161008D01*
X-1159D01*
Y159408D01*
X-2759D01*
X-2359Y159808D02*
Y160608D01*
X-1559D01*
Y159808D01*
X-2359D01*
X18159Y179693D02*
X17359Y181293D01*
X18959D01*
X18159Y179693D01*
Y180093D02*
X17759Y180893D01*
X18559D01*
X18159Y180093D01*
X-24400Y338400D02*
X-25200Y340000D01*
X-23600D01*
X-24400Y338400D01*
Y338800D02*
X-24800Y339600D01*
X-24000D01*
X-24400Y338800D01*
X16000Y281900D02*
X15200Y283500D01*
X16800D01*
X16000Y281900D01*
Y282300D02*
X15600Y283100D01*
X16400D01*
X16000Y282300D01*
X20100Y310200D02*
Y311800D01*
X21700D01*
Y310200D01*
X20100D01*
X20500Y310600D02*
Y311400D01*
X21300D01*
Y310600D01*
X20500D01*
X16901Y123196D02*
X16101Y124796D01*
X17701D01*
X16901Y123196D01*
Y123596D02*
X16501Y124396D01*
X17301D01*
X16901Y123596D01*
X28628Y177458D02*
X27828Y179058D01*
X29428D01*
X28628Y177458D01*
Y177858D02*
X28228Y178658D01*
X29028D01*
X28628Y177858D01*
X12715Y167057D02*
X11915Y168657D01*
X13515D01*
X12715Y167057D01*
Y167457D02*
X12315Y168257D01*
X13115D01*
X12715Y167457D01*
X44983Y268289D02*
X44183Y269889D01*
X45783D01*
X44983Y268289D01*
Y268689D02*
X44583Y269489D01*
X45383D01*
X44983Y268689D01*
X46305Y163508D02*
X45505Y165108D01*
X47105D01*
X46305Y163508D01*
Y163908D02*
X45905Y164708D01*
X46705D01*
X46305Y163908D01*
X-22036Y100408D02*
X-22836Y102008D01*
X-21236D01*
X-22036Y100408D01*
Y100808D02*
X-22436Y101608D01*
X-21636D01*
X-22036Y100808D01*
X179464Y258608D02*
X178664Y260208D01*
X180264D01*
X179464Y258608D01*
Y259008D02*
X179064Y259808D01*
X179864D01*
X179464Y259008D01*
X177164Y282108D02*
X176364Y283708D01*
X177964D01*
X177164Y282108D01*
Y282508D02*
X176764Y283308D01*
X177564D01*
X177164Y282508D01*
X16856Y272248D02*
Y273848D01*
X18456D01*
Y272248D01*
X16856D01*
X17256Y272648D02*
Y273448D01*
X18056D01*
Y272648D01*
X17256D01*
X56659Y234551D02*
Y236151D01*
X58259D01*
Y234551D01*
X56659D01*
X57059Y234951D02*
Y235751D01*
X57859D01*
Y234951D01*
X57059D01*
X-62758Y301408D02*
X-62358Y301808D01*
X-61958D01*
X-62358Y302208D01*
X-61958Y302608D01*
X-62358D01*
X-62758Y303008D01*
X-63158Y302608D01*
X-63558D01*
X-63158Y302208D01*
X-63558Y301808D01*
X-63158D01*
X-62758Y301408D01*
Y301808D02*
X-62558Y302008D01*
X-62358D01*
X-62558Y302208D01*
X-62358Y302408D01*
X-62558D01*
X-62758Y302608D01*
X-62958Y302408D01*
X-63158D01*
X-62958Y302208D01*
X-63158Y302008D01*
X-62958D01*
X-62758Y301808D01*
X153064Y145508D02*
X152264Y147108D01*
X153864D01*
X153064Y145508D01*
Y145908D02*
X152664Y146708D01*
X153464D01*
X153064Y145908D01*
X-63436Y189208D02*
Y190808D01*
X-61836D01*
Y189208D01*
X-63436D01*
X-63036Y189608D02*
Y190408D01*
X-62236D01*
Y189608D01*
X-63036D01*
D129*
X392564Y334608D02*
G03*
X392564Y334608I-800J0D01*
G01*
X382564D02*
G03*
X382564Y334608I-800J0D01*
G01*
X392564Y344608D02*
G03*
X392564Y344608I-800J0D01*
G01*
X382564D02*
G03*
X382564Y344608I-800J0D01*
G01*
X273100Y54200D02*
G03*
X273100Y54200I-800J0D01*
G01*
X263100D02*
G03*
X263100Y54200I-800J0D01*
G01*
X253100D02*
G03*
X253100Y54200I-800J0D01*
G01*
X-61836Y219908D02*
G03*
X-61836Y219908I-800J0D01*
G01*
Y209908D02*
G03*
X-61836Y209908I-800J0D01*
G01*
Y199908D02*
G03*
X-61836Y199908I-800J0D01*
G01*
X-21836Y205908D02*
G03*
X-21836Y205908I-800J0D01*
G01*
Y195908D02*
G03*
X-21836Y195908I-800J0D01*
G01*
X-31836Y205908D02*
G03*
X-31836Y205908I-800J0D01*
G01*
Y195908D02*
G03*
X-31836Y195908I-800J0D01*
G01*
X312564Y127108D02*
G03*
X312564Y127108I-800J0D01*
G01*
X302564D02*
G03*
X302564Y127108I-800J0D01*
G01*
X323876Y208822D02*
G03*
X323876Y208822I-800J0D01*
G01*
X329782Y197011D02*
G03*
X329782Y197011I-800J0D01*
G01*
X335687Y186055D02*
G03*
X335687Y186055I-800J0D01*
G01*
X312065Y208822D02*
G03*
X312065Y208822I-800J0D01*
G01*
X317971Y197011D02*
G03*
X317971Y197011I-800J0D01*
G01*
X323876Y186055D02*
G03*
X323876Y186055I-800J0D01*
G01*
X300254Y208822D02*
G03*
X300254Y208822I-800J0D01*
G01*
X306160Y197011D02*
G03*
X306160Y197011I-800J0D01*
G01*
X312065Y186055D02*
G03*
X312065Y186055I-800J0D01*
G01*
X288443Y208822D02*
G03*
X288443Y208822I-800J0D01*
G01*
X294349Y197011D02*
G03*
X294349Y197011I-800J0D01*
G01*
X300254Y186055D02*
G03*
X300254Y186055I-800J0D01*
G01*
X253010Y208822D02*
G03*
X253010Y208822I-800J0D01*
G01*
X258916Y197011D02*
G03*
X258916Y197011I-800J0D01*
G01*
X264821Y186055D02*
G03*
X264821Y186055I-800J0D01*
G01*
X253010D02*
G03*
X253010Y186055I-800J0D01*
G01*
X241199D02*
G03*
X241199Y186055I-800J0D01*
G01*
X229388D02*
G03*
X229388Y186055I-800J0D01*
G01*
X217577D02*
G03*
X217577Y186055I-800J0D01*
G01*
X205766D02*
G03*
X205766Y186055I-800J0D01*
G01*
X199861Y197866D02*
G03*
X199861Y197866I-800J0D01*
G01*
X188050Y197011D02*
G03*
X188050Y197011I-800J0D01*
G01*
X182144Y208822D02*
G03*
X182144Y208822I-800J0D01*
G01*
X111278D02*
G03*
X111278Y208822I-800J0D01*
G01*
X105373Y197011D02*
G03*
X105373Y197011I-800J0D01*
G01*
X276632Y208822D02*
G03*
X276632Y208822I-800J0D01*
G01*
X158522Y186055D02*
G03*
X158522Y186055I-800J0D01*
G01*
X170333D02*
G03*
X170333Y186055I-800J0D01*
G01*
X182144D02*
G03*
X182144Y186055I-800J0D01*
G01*
X193955D02*
G03*
X193955Y186055I-800J0D01*
G01*
X152617Y197011D02*
G03*
X152617Y197011I-800J0D01*
G01*
X140805D02*
G03*
X140805Y197011I-800J0D01*
G01*
X111278Y185200D02*
G03*
X111278Y185200I-800J0D01*
G01*
X211672Y197011D02*
G03*
X211672Y197011I-800J0D01*
G01*
X276632Y185200D02*
G03*
X276632Y185200I-800J0D01*
G01*
X264821Y208822D02*
G03*
X264821Y208822I-800J0D01*
G01*
X146711Y185200D02*
G03*
X146711Y185200I-800J0D01*
G01*
Y208822D02*
G03*
X146711Y208822I-800J0D01*
G01*
X223483Y197011D02*
G03*
X223483Y197011I-800J0D01*
G01*
X117183D02*
G03*
X117183Y197011I-800J0D01*
G01*
X170333Y208822D02*
G03*
X170333Y208822I-800J0D01*
G01*
X134900Y185200D02*
G03*
X134900Y185200I-800J0D01*
G01*
X217577Y208822D02*
G03*
X217577Y208822I-800J0D01*
G01*
X282538Y197011D02*
G03*
X282538Y197011I-800J0D01*
G01*
X158522Y208822D02*
G03*
X158522Y208822I-800J0D01*
G01*
X288443Y185200D02*
G03*
X288443Y185200I-800J0D01*
G01*
X123089Y208822D02*
G03*
X123089Y208822I-800J0D01*
G01*
X229388D02*
G03*
X229388Y208822I-800J0D01*
G01*
X205766D02*
G03*
X205766Y208822I-800J0D01*
G01*
X235294Y197011D02*
G03*
X235294Y197011I-800J0D01*
G01*
X176239D02*
G03*
X176239Y197011I-800J0D01*
G01*
X99467Y185200D02*
G03*
X99467Y185200I-800J0D01*
G01*
X164427Y197011D02*
G03*
X164427Y197011I-800J0D01*
G01*
X128995D02*
G03*
X128995Y197011I-800J0D01*
G01*
X247105D02*
G03*
X247105Y197011I-800J0D01*
G01*
X241199Y208822D02*
G03*
X241199Y208822I-800J0D01*
G01*
X193955D02*
G03*
X193955Y208822I-800J0D01*
G01*
X123089Y185200D02*
G03*
X123089Y185200I-800J0D01*
G01*
X270727Y197011D02*
G03*
X270727Y197011I-800J0D01*
G01*
X134900Y208822D02*
G03*
X134900Y208822I-800J0D01*
G01*
X417640Y200132D02*
G03*
X417640Y200132I-800J0D01*
G01*
X143564Y146300D02*
G03*
X143564Y146300I-800J0D01*
G01*
X84200Y114500D02*
G03*
X84200Y114500I-800J0D01*
G01*
X467837Y152600D02*
G03*
X467837Y152600I-800J0D01*
G01*
X461932Y164411D02*
G03*
X461932Y164411I-800J0D01*
G01*
X322627Y106458D02*
G03*
X322627Y106458I-800J0D01*
G01*
X328982D02*
G03*
X328982Y106458I-800J0D01*
G01*
Y98939D02*
G03*
X328982Y98939I-800J0D01*
G01*
X322269D02*
G03*
X322269Y98939I-800J0D01*
G01*
X263575Y26300D02*
G03*
X263575Y26300I-800J0D01*
G01*
X250250D02*
G03*
X250250Y26300I-800J0D01*
G01*
X288187D02*
G03*
X288187Y26300I-800J0D01*
G01*
X244519Y19226D02*
G03*
X244519Y19226I-800J0D01*
G01*
X256796D02*
G03*
X256796Y19226I-800J0D01*
G01*
X269430D02*
G03*
X269430Y19226I-800J0D01*
G01*
X294631D02*
G03*
X294631Y19226I-800J0D01*
G01*
X282355D02*
G03*
X282355Y19226I-800J0D01*
G01*
X238664Y26300D02*
G03*
X238664Y26300I-800J0D01*
G01*
X276500D02*
G03*
X276500Y26300I-800J0D01*
G01*
X308482Y34029D02*
G03*
X308482Y34029I-800J0D01*
G01*
X301141Y26446D02*
G03*
X301141Y26446I-800J0D01*
G01*
X294733Y34604D02*
G03*
X294733Y34604I-800J0D01*
G01*
X308482Y19226D02*
G03*
X308482Y19226I-800J0D01*
G01*
X256105Y34101D02*
G03*
X256105Y34101I-800J0D01*
G01*
X244519D02*
G03*
X244519Y34101I-800J0D01*
G01*
X308482Y58940D02*
G03*
X308482Y58940I-800J0D01*
G01*
X302058Y39884D02*
G03*
X302058Y39884I-800J0D01*
G01*
X295483Y45615D02*
G03*
X295483Y45615I-800J0D01*
G01*
X308482D02*
G03*
X308482Y45615I-800J0D01*
G01*
X302058Y52160D02*
G03*
X302058Y52160I-800J0D01*
G01*
X295665Y70526D02*
G03*
X295665Y70526I-800J0D01*
G01*
Y58940D02*
G03*
X295665Y58940I-800J0D01*
G01*
X302058Y64795D02*
G03*
X302058Y64795I-800J0D01*
G01*
X173950Y25267D02*
G03*
X173950Y25267I-800J0D01*
G01*
X178399Y19412D02*
G03*
X178399Y19412I-800J0D01*
G01*
X170064D02*
G03*
X170064Y19412I-800J0D01*
G01*
Y30997D02*
G03*
X170064Y30997I-800J0D01*
G01*
X178399D02*
G03*
X178399Y30997I-800J0D01*
G01*
Y44543D02*
G03*
X178399Y44543I-800J0D01*
G01*
X170064D02*
G03*
X170064Y44543I-800J0D01*
G01*
X173950Y37543D02*
G03*
X173950Y37543I-800J0D01*
G01*
X126400Y52100D02*
G03*
X126400Y52100I-800J0D01*
G01*
X122514Y59100D02*
G03*
X122514Y59100I-800J0D01*
G01*
X130849D02*
G03*
X130849Y59100I-800J0D01*
G01*
Y45555D02*
G03*
X130849Y45555I-800J0D01*
G01*
X122514D02*
G03*
X122514Y45555I-800J0D01*
G01*
X88308Y43400D02*
G03*
X88308Y43400I-800J0D01*
G01*
X129282Y100475D02*
G03*
X129282Y100475I-800J0D01*
G01*
X461932Y306143D02*
G03*
X461932Y306143I-800J0D01*
G01*
Y282521D02*
G03*
X461932Y282521I-800J0D01*
G01*
X467837Y270710D02*
G03*
X467837Y270710I-800J0D01*
G01*
X461932Y258899D02*
G03*
X461932Y258899I-800J0D01*
G01*
X467837Y247088D02*
G03*
X467837Y247088I-800J0D01*
G01*
X461932Y235277D02*
G03*
X461932Y235277I-800J0D01*
G01*
X467837Y223466D02*
G03*
X467837Y223466I-800J0D01*
G01*
X461932Y211655D02*
G03*
X461932Y211655I-800J0D01*
G01*
X467837Y199844D02*
G03*
X467837Y199844I-800J0D01*
G01*
X461932Y188033D02*
G03*
X461932Y188033I-800J0D01*
G01*
X467837Y176222D02*
G03*
X467837Y176222I-800J0D01*
G01*
X461932Y140789D02*
G03*
X461932Y140789I-800J0D01*
G01*
X192435Y109779D02*
G03*
X192435Y109779I-800J0D01*
G01*
X216104Y100475D02*
G03*
X216104Y100475I-800J0D01*
G01*
X105614Y109779D02*
G03*
X105614Y109779I-800J0D01*
G01*
X169264Y95808D02*
G03*
X169264Y95808I-800J0D01*
G01*
X417664Y187308D02*
G03*
X417664Y187308I-800J0D01*
G01*
D130*
X323476Y208822D02*
G03*
X323476Y208822I-400J0D01*
G01*
X329382Y197011D02*
G03*
X329382Y197011I-400J0D01*
G01*
X335287Y186055D02*
G03*
X335287Y186055I-400J0D01*
G01*
X311665Y208822D02*
G03*
X311665Y208822I-400J0D01*
G01*
X317571Y197011D02*
G03*
X317571Y197011I-400J0D01*
G01*
X323476Y186055D02*
G03*
X323476Y186055I-400J0D01*
G01*
X299854Y208822D02*
G03*
X299854Y208822I-400J0D01*
G01*
X305760Y197011D02*
G03*
X305760Y197011I-400J0D01*
G01*
X311665Y186055D02*
G03*
X311665Y186055I-400J0D01*
G01*
X288043Y208822D02*
G03*
X288043Y208822I-400J0D01*
G01*
X293949Y197011D02*
G03*
X293949Y197011I-400J0D01*
G01*
X299854Y186055D02*
G03*
X299854Y186055I-400J0D01*
G01*
X252610Y208822D02*
G03*
X252610Y208822I-400J0D01*
G01*
X258516Y197011D02*
G03*
X258516Y197011I-400J0D01*
G01*
X264421Y186055D02*
G03*
X264421Y186055I-400J0D01*
G01*
X252610D02*
G03*
X252610Y186055I-400J0D01*
G01*
X240799D02*
G03*
X240799Y186055I-400J0D01*
G01*
X228988D02*
G03*
X228988Y186055I-400J0D01*
G01*
X217177D02*
G03*
X217177Y186055I-400J0D01*
G01*
X205366D02*
G03*
X205366Y186055I-400J0D01*
G01*
X199461Y197866D02*
G03*
X199461Y197866I-400J0D01*
G01*
X187650Y197011D02*
G03*
X187650Y197011I-400J0D01*
G01*
X181744Y208822D02*
G03*
X181744Y208822I-400J0D01*
G01*
X110878D02*
G03*
X110878Y208822I-400J0D01*
G01*
X104973Y197011D02*
G03*
X104973Y197011I-400J0D01*
G01*
X276232Y208822D02*
G03*
X276232Y208822I-400J0D01*
G01*
X158122Y186055D02*
G03*
X158122Y186055I-400J0D01*
G01*
X169933D02*
G03*
X169933Y186055I-400J0D01*
G01*
X181744D02*
G03*
X181744Y186055I-400J0D01*
G01*
X193555D02*
G03*
X193555Y186055I-400J0D01*
G01*
X152216Y197011D02*
G03*
X152216Y197011I-400J0D01*
G01*
X140405D02*
G03*
X140405Y197011I-400J0D01*
G01*
X110878Y185200D02*
G03*
X110878Y185200I-400J0D01*
G01*
X211272Y197011D02*
G03*
X211272Y197011I-400J0D01*
G01*
X276232Y185200D02*
G03*
X276232Y185200I-400J0D01*
G01*
X264421Y208822D02*
G03*
X264421Y208822I-400J0D01*
G01*
X146311Y185200D02*
G03*
X146311Y185200I-400J0D01*
G01*
Y208822D02*
G03*
X146311Y208822I-400J0D01*
G01*
X223083Y197011D02*
G03*
X223083Y197011I-400J0D01*
G01*
X116783D02*
G03*
X116783Y197011I-400J0D01*
G01*
X169933Y208822D02*
G03*
X169933Y208822I-400J0D01*
G01*
X134500Y185200D02*
G03*
X134500Y185200I-400J0D01*
G01*
X217177Y208822D02*
G03*
X217177Y208822I-400J0D01*
G01*
X282138Y197011D02*
G03*
X282138Y197011I-400J0D01*
G01*
X158122Y208822D02*
G03*
X158122Y208822I-400J0D01*
G01*
X288043Y185200D02*
G03*
X288043Y185200I-400J0D01*
G01*
X122689Y208822D02*
G03*
X122689Y208822I-400J0D01*
G01*
X228988D02*
G03*
X228988Y208822I-400J0D01*
G01*
X205366D02*
G03*
X205366Y208822I-400J0D01*
G01*
X234894Y197011D02*
G03*
X234894Y197011I-400J0D01*
G01*
X175839D02*
G03*
X175839Y197011I-400J0D01*
G01*
X99067Y185200D02*
G03*
X99067Y185200I-400J0D01*
G01*
X164028Y197011D02*
G03*
X164028Y197011I-400J0D01*
G01*
X128595D02*
G03*
X128595Y197011I-400J0D01*
G01*
X246705D02*
G03*
X246705Y197011I-400J0D01*
G01*
X240799Y208822D02*
G03*
X240799Y208822I-400J0D01*
G01*
X193555D02*
G03*
X193555Y208822I-400J0D01*
G01*
X122689Y185200D02*
G03*
X122689Y185200I-400J0D01*
G01*
X270327Y197011D02*
G03*
X270327Y197011I-400J0D01*
G01*
X134500Y208822D02*
G03*
X134500Y208822I-400J0D01*
G01*
X417240Y200132D02*
G03*
X417240Y200132I-400J0D01*
G01*
X143164Y146300D02*
G03*
X143164Y146300I-400J0D01*
G01*
X83800Y114500D02*
G03*
X83800Y114500I-400J0D01*
G01*
X467437Y152600D02*
G03*
X467437Y152600I-400J0D01*
G01*
X461532Y164411D02*
G03*
X461532Y164411I-400J0D01*
G01*
X322227Y106458D02*
G03*
X322227Y106458I-400J0D01*
G01*
X328582D02*
G03*
X328582Y106458I-400J0D01*
G01*
Y98939D02*
G03*
X328582Y98939I-400J0D01*
G01*
X321869D02*
G03*
X321869Y98939I-400J0D01*
G01*
X263175Y26300D02*
G03*
X263175Y26300I-400J0D01*
G01*
X249850D02*
G03*
X249850Y26300I-400J0D01*
G01*
X287787D02*
G03*
X287787Y26300I-400J0D01*
G01*
X244119Y19226D02*
G03*
X244119Y19226I-400J0D01*
G01*
X256396D02*
G03*
X256396Y19226I-400J0D01*
G01*
X269030D02*
G03*
X269030Y19226I-400J0D01*
G01*
X294231D02*
G03*
X294231Y19226I-400J0D01*
G01*
X281955D02*
G03*
X281955Y19226I-400J0D01*
G01*
X238264Y26300D02*
G03*
X238264Y26300I-400J0D01*
G01*
X276100D02*
G03*
X276100Y26300I-400J0D01*
G01*
X308082Y34029D02*
G03*
X308082Y34029I-400J0D01*
G01*
X300741Y26446D02*
G03*
X300741Y26446I-400J0D01*
G01*
X294333Y34604D02*
G03*
X294333Y34604I-400J0D01*
G01*
X308082Y19226D02*
G03*
X308082Y19226I-400J0D01*
G01*
X255705Y34101D02*
G03*
X255705Y34101I-400J0D01*
G01*
X244119D02*
G03*
X244119Y34101I-400J0D01*
G01*
X308082Y58940D02*
G03*
X308082Y58940I-400J0D01*
G01*
X301658Y39884D02*
G03*
X301658Y39884I-400J0D01*
G01*
X295083Y45615D02*
G03*
X295083Y45615I-400J0D01*
G01*
X308082D02*
G03*
X308082Y45615I-400J0D01*
G01*
X301658Y52160D02*
G03*
X301658Y52160I-400J0D01*
G01*
X295265Y70526D02*
G03*
X295265Y70526I-400J0D01*
G01*
Y58940D02*
G03*
X295265Y58940I-400J0D01*
G01*
X301658Y64795D02*
G03*
X301658Y64795I-400J0D01*
G01*
X173550Y25267D02*
G03*
X173550Y25267I-400J0D01*
G01*
X177999Y19412D02*
G03*
X177999Y19412I-400J0D01*
G01*
X169664D02*
G03*
X169664Y19412I-400J0D01*
G01*
Y30997D02*
G03*
X169664Y30997I-400J0D01*
G01*
X177999D02*
G03*
X177999Y30997I-400J0D01*
G01*
Y44543D02*
G03*
X177999Y44543I-400J0D01*
G01*
X169664D02*
G03*
X169664Y44543I-400J0D01*
G01*
X173550Y37543D02*
G03*
X173550Y37543I-400J0D01*
G01*
X126000Y52100D02*
G03*
X126000Y52100I-400J0D01*
G01*
X122114Y59100D02*
G03*
X122114Y59100I-400J0D01*
G01*
X130449D02*
G03*
X130449Y59100I-400J0D01*
G01*
Y45555D02*
G03*
X130449Y45555I-400J0D01*
G01*
X122114D02*
G03*
X122114Y45555I-400J0D01*
G01*
X87908Y43400D02*
G03*
X87908Y43400I-400J0D01*
G01*
X128882Y100475D02*
G03*
X128882Y100475I-400J0D01*
G01*
X461532Y306143D02*
G03*
X461532Y306143I-400J0D01*
G01*
Y282521D02*
G03*
X461532Y282521I-400J0D01*
G01*
X467437Y270710D02*
G03*
X467437Y270710I-400J0D01*
G01*
X461532Y258899D02*
G03*
X461532Y258899I-400J0D01*
G01*
X467437Y247088D02*
G03*
X467437Y247088I-400J0D01*
G01*
X461532Y235277D02*
G03*
X461532Y235277I-400J0D01*
G01*
X467437Y223466D02*
G03*
X467437Y223466I-400J0D01*
G01*
X461532Y211655D02*
G03*
X461532Y211655I-400J0D01*
G01*
X467437Y199844D02*
G03*
X467437Y199844I-400J0D01*
G01*
X461532Y188033D02*
G03*
X461532Y188033I-400J0D01*
G01*
X467437Y176222D02*
G03*
X467437Y176222I-400J0D01*
G01*
X461532Y140789D02*
G03*
X461532Y140789I-400J0D01*
G01*
X192035Y109779D02*
G03*
X192035Y109779I-400J0D01*
G01*
X215704Y100475D02*
G03*
X215704Y100475I-400J0D01*
G01*
X105214Y109779D02*
G03*
X105214Y109779I-400J0D01*
G01*
X168864Y95808D02*
G03*
X168864Y95808I-400J0D01*
G01*
X417264Y187308D02*
G03*
X417264Y187308I-400J0D01*
G01*
M02*
